<svg width="615" height="609" viewBox="0 0 615 609" fill="none" xmlns="http://www.w3.org/2000/svg">
<g filter="url(#filter0_i_101_3)">
<path d="M303.456 0.0151978C293.133 0.392334 286.184 0.963379 271.562 2.60114C268.125 2.97827 262.716 3.5816 259.548 3.93719C253.234 4.63757 249.291 5.14398 245.487 5.72583C203.239 12.1799 164.364 28.2344 127.988 54.2339C102.538 72.4326 78.5747 95.7062 56.3247 123.861C49.9784 131.899 40.6151 144.505 38.848 147.404C36.9301 150.561 34.3764 155.646 29.5924 165.882C25.6273 174.351 24.5498 176.55 23.2138 178.974C18.8607 186.861 17.3092 191.257 17.0182 196.504C16.792 200.459 17.3415 204.909 19.0008 212.753C20.0675 217.817 20.283 219.832 20.283 224.821C20.283 229.809 19.9598 232.966 18.9362 238.16C17.4923 245.454 15.6283 251.477 10.1547 266.497C6.32964 276.96 4.78885 281.582 3.32347 286.98C1.84732 292.389 1.39478 295.589 1.52408 299.705C1.70725 305.287 3.10798 309.37 5.7909 312.129C6.24344 312.603 7.00845 313.249 7.50409 313.573C8.36608 314.154 9.94997 314.898 10.3163 314.898C10.4241 314.898 11.2645 313.853 12.5359 312.118C17.2337 305.739 16.7704 306.321 16.8997 306.655C17.1044 307.194 17.4385 308.595 17.6001 309.564C18.2573 313.53 17.5678 318.141 15.5098 323.464C14.4969 326.082 13.538 328.151 11.0921 333C8.56002 338.031 7.74114 339.766 6.70676 342.234C3.1834 350.692 1.07154 359.506 0.241879 369.203C0.0156086 371.983 -0.0813646 378.383 0.0802574 381.325C1.08231 399.857 7.06233 416.537 17.8479 430.878C23.2676 438.086 28.8382 443.958 42.2744 456.651C45.356 459.55 49.1379 463.148 50.6679 464.635C62.865 476.466 70.138 485.775 75.0298 495.839C77.4002 500.709 79.0272 505.17 82.3028 515.794C85.6106 526.537 87.1945 530.846 89.6296 535.76C90.9549 538.443 91.6122 539.585 93.1314 541.869C96.4932 546.912 100.189 550.521 105.544 554.034C109.703 556.749 114.164 558.947 124.131 563.192C133.709 567.265 137.718 569.291 142.372 572.426C145.615 574.614 148.018 576.682 153.481 581.984C160.161 588.47 162.252 590.323 165.215 592.414C172.606 597.618 179.599 598.717 186.926 595.829C189.738 594.719 192.26 593.308 197.593 589.871C201.246 587.522 202.463 586.768 204.252 585.787C207.431 584.031 210.652 582.824 216.471 581.197C225.209 578.74 227.385 578.008 230.564 576.392C237.277 572.987 241.447 568.192 242.459 562.708C242.556 562.212 242.729 560.693 242.847 559.335C243.289 554.292 243.785 552.816 245.649 550.952C246.478 550.133 246.737 549.95 247.814 549.422C249.323 548.69 250.519 548.334 253.633 547.687C257.264 546.944 258.6 546.545 260.119 545.791C261.865 544.908 263.33 543.485 264.117 541.891C264.817 540.468 264.946 539.876 265.011 537.936C265.054 536.525 265.033 536.094 264.839 535.178C264.397 533.012 263.535 530.997 262.231 529.079C261.38 527.83 259.247 525.664 258.126 524.91C255.206 522.97 251.758 522.043 246.92 521.914C243.526 521.817 240.348 522.108 234.766 523.024C230.693 523.681 228.398 524.026 226.847 524.188C220.328 524.888 214.51 524.101 210.038 521.936C208.271 521.084 206.978 520.169 205.663 518.854C204.704 517.895 203.315 516.042 203.508 515.977C203.552 515.966 204.554 516.128 205.739 516.333C211.708 517.4 218.076 518.132 225.015 518.563C228.495 518.779 239.766 518.746 243.332 518.509C248.321 518.175 252.814 517.712 257.124 517.087C259.958 516.667 260.777 516.365 261.628 515.417C263.373 513.477 262.414 510.439 258.632 505.86C255.465 502.045 253.407 498.231 251.564 492.822C250.045 488.318 249.183 484.569 247.48 475.011C246.306 468.439 245.659 465.249 244.841 462.028C242.858 454.238 240.434 448.99 236.587 444.185C235.456 442.762 234.906 441.89 234.454 440.726C233.98 439.562 233.172 436.567 233.042 435.533C232.644 432.311 233.376 426.072 234.529 422.904C235.079 421.396 236.932 418.379 240.014 413.94C244.711 407.195 246.166 404.932 247.556 402.185C249.668 398.025 250.54 394.621 250.53 390.591C250.519 387.542 250.034 385.096 248.881 382.38C247.286 378.599 245.142 375.668 239.076 368.934C233.118 362.329 231.609 360.26 229.131 355.357C228.56 354.226 227.612 352.523 227.008 351.554C226.416 350.584 225.457 348.936 224.896 347.89C224.325 346.845 223.603 345.595 223.291 345.121C220.867 341.469 217.117 338.193 211.924 335.208C210.243 334.239 206.288 332.267 204.133 331.308C203.315 330.952 202.636 330.629 202.625 330.608C202.614 330.575 203.433 329.886 204.435 329.078C209.79 324.757 212.57 322.074 212.57 321.233C212.57 321.126 212.452 320.975 212.301 320.91C211.816 320.695 210.318 321.093 204.704 322.979C196.257 325.813 194.404 326.201 191.344 325.78C190.266 325.63 185.644 323.981 185.213 323.593C184.48 322.914 184.254 321.6 184.674 320.361C185.181 318.841 186.7 316.234 188.036 314.575C188.402 314.133 190.148 312.29 191.926 310.491C193.714 308.692 195.115 307.194 195.039 307.172C194.878 307.118 194.102 307.506 191.074 309.187C182.465 313.95 177.283 316.245 172.865 317.225C171.658 317.495 169.665 317.548 168.824 317.333C167.402 316.967 166.713 316.299 166.141 314.726C165.657 313.379 165.463 312.42 165.473 311.234C165.473 310.06 165.657 309.252 166.174 308.164C166.702 307.043 167.305 306.289 169.676 303.821C172.111 301.279 172.703 300.6 172.703 300.33C172.703 299.813 172.003 300.169 168.189 302.636C159.429 308.315 156.056 310.157 154.462 310.157C153.718 310.157 153.61 309.963 153.621 308.616C153.632 306.472 154.408 303.908 155.992 300.837C156.38 300.083 156.552 299.49 156.38 299.49C156.164 299.49 153.75 300.341 153.115 300.643C151.93 301.203 150.335 302.313 148.298 304.015C144.807 306.914 142.674 308.11 140.982 308.131C140.066 308.142 139.646 307.927 138.569 306.903C138.052 306.407 137.394 305.826 137.093 305.61C135.369 304.371 131.662 302.819 127.762 301.699C125.844 301.149 121.986 300.244 121.566 300.244C121.448 300.244 121.825 300.46 122.396 300.707C125.542 302.13 128.236 304.436 130.1 307.302C130.617 308.11 131.328 309.414 131.328 309.575C131.328 309.672 129.604 309.521 128.624 309.338C127.094 309.047 125.887 308.552 124.465 307.636C122.331 306.267 120.456 305.384 116.965 304.112C115.672 303.649 114.519 303.207 114.401 303.153C114.024 302.949 114.185 303.207 114.821 303.811C115.651 304.619 116.211 305.061 118.237 306.494C119.185 307.162 120.327 308.013 120.769 308.368C121.631 309.08 122.848 310.265 122.784 310.34C122.751 310.362 121.663 310.329 120.359 310.276L117.978 310.168L115.36 308.821C111.33 306.752 109.315 306.019 106.783 305.685C105.501 305.513 104.046 305.481 103.701 305.621C103.486 305.707 103.885 305.901 106.061 306.817C106.654 307.065 107.742 307.582 108.486 307.959C110.037 308.756 111.826 310.028 111.589 310.168C111.513 310.222 111.061 310.265 110.587 310.265C108.776 310.265 104.456 310.653 101.482 311.084C95.6851 311.913 90.1253 313.389 85.0503 315.437C83.1755 316.191 78.6178 318.443 76.7537 319.531C66.9056 325.306 57.7039 333.668 46.7998 346.737C37.4149 357.986 28.418 370.657 20.7786 383.339C20.0352 384.579 19.3995 385.581 19.3564 385.581C19.2163 385.581 17.6647 383.372 17.0829 382.348C14.9495 378.62 13.9582 374.504 13.9582 369.472C13.969 364.915 14.7986 360.238 16.5549 354.926C18.2035 349.938 19.9921 346.005 23.9033 338.764C26.0691 334.756 29.0645 328.862 30.045 326.696C32.7925 320.576 34.3441 315.48 34.9583 310.534C35.1846 308.724 35.2169 304.92 35.0122 303.315C34.3657 298.089 32.9326 294.544 28.2133 286.506C23.2676 278.08 22.1578 275.02 22.147 269.805C22.1363 265.732 22.9121 262.317 25.498 254.882C26.8233 251.068 27.6422 248.59 28.2025 246.64C29.6679 241.522 32.0168 235.682 34.9583 229.777C38.083 223.528 41.3908 217.849 48.7931 206.019C53.6095 198.325 54.7408 196.569 61.6475 186.139C70.4289 172.886 73.4674 168.221 76.452 163.404C81.7101 154.924 83.3802 152.306 86.214 148.158C97.2366 132.028 109.261 118.032 122.493 105.91C126.77 102.009 129.927 99.3588 138.838 92.2582L145.432 87.0001L146.165 87.1833C147.232 87.4419 149.861 88.3577 153.276 89.6615C164.816 94.0468 165.592 94.3055 167.575 94.4671C168.587 94.5533 169.471 94.5533 170.753 94.4563C174.912 94.1761 178.058 93.3573 181.431 91.6872C183.92 90.4589 185.31 89.4676 188.014 87.0325C190.589 84.7159 193.316 83.3044 196.376 82.6902C198.003 82.3778 200.427 82.3024 202.496 82.5286C205.836 82.8734 207.409 82.938 210.889 82.8842C218.647 82.7549 221.287 81.8929 227.45 77.4644C231.394 74.6199 232.881 73.7256 234.874 73.0252C236.598 72.4218 237.341 72.3033 239.345 72.3141C241.069 72.3141 241.306 72.3464 243.321 72.7667C247.114 73.564 248.353 73.6932 252.167 73.704C255.96 73.704 256.919 73.5963 259.731 72.8959C263.309 71.9908 266.433 70.4177 269.515 67.9934C271.541 66.3987 273.178 65.1704 273.933 64.6855C276.465 63.0478 278.867 62.3798 281.227 62.6491C282.639 62.8107 283.619 63.0693 285.753 63.8344C289.664 65.2458 292.767 65.7522 296.883 65.6445C299.975 65.5583 302.033 65.2242 304.781 64.33C307.539 63.4357 310.739 61.8733 313.304 60.1494C314.607 59.2766 315.157 59.0718 315.997 59.1257C316.935 59.2012 317.948 59.6321 319.898 60.785C322.01 62.0241 323.227 62.6383 325.005 63.3387C328.227 64.6101 331.179 65.4182 334.325 65.9139C335.661 66.1186 336.329 66.1509 338.905 66.1509C342.977 66.1617 344.378 65.957 348.968 64.664C352.632 63.6296 353.526 63.468 355.606 63.4788C357.523 63.4788 358.148 63.5973 359.484 64.2114C360.68 64.7717 361.812 65.7199 363.956 67.9503C366.068 70.1484 366.876 70.8595 368.568 71.9585C372.306 74.4152 376.412 76.0206 380.872 76.7856C381.896 76.9581 382.855 77.0227 384.859 77.0658C388.027 77.1304 388.62 77.055 391.335 76.1823C395.526 74.8354 397.142 74.5876 398.64 75.0401C399.502 75.2987 399.739 75.5034 401.194 77.2166C404.793 81.4296 410.719 84.759 416.796 85.9873C419.252 86.483 420.631 86.623 423.325 86.623C425.415 86.6339 426.202 86.5907 427.883 86.3644C429.715 86.1274 429.995 86.1166 430.954 86.2351C434.596 86.6984 437.311 88.6595 442.504 94.6072C444.918 97.3547 446.868 99.3265 448.161 100.296C449.389 101.223 451.555 102.3 453.171 102.785C459.001 104.52 466.791 103.766 475.378 100.641C478.287 99.5851 480.205 99.2618 482.22 99.4989C485.647 99.8976 488.373 101.406 492.715 105.328C504.847 116.264 516.312 129.259 526.494 143.579C532.183 151.595 536.224 157.931 543.033 169.546C545.393 173.565 548.421 178.564 553.7 187.163C555.995 190.891 558.193 194.533 558.592 195.244C560.241 198.175 561.544 201.116 562.751 204.629C565.391 212.257 567.707 216.826 575.422 229.562C582.501 241.263 584.829 245.756 587.35 252.63C590.011 259.849 591.552 266.196 594.429 281.712C595.032 284.944 595.808 288.985 596.164 290.708C596.509 292.422 596.799 293.887 596.799 293.962C596.799 294.135 595.776 294.76 593.19 296.15C588.471 298.682 588.363 298.79 586.51 302.884C581.402 314.165 579.646 322.526 580.594 331.06C581.154 336.157 582.717 340.704 588.643 354.603C591.875 362.189 594.925 369.763 594.817 369.946C594.795 369.979 594.418 370.183 593.998 370.388L593.222 370.765L592.942 370.42C592.78 370.237 588.19 365.227 582.738 359.29L572.826 348.505L572.804 347.643C572.782 346.447 572.696 345.908 572.33 344.917C571.371 342.277 569.054 340.057 565.186 338.064C564.41 337.665 562.342 336.728 560.596 335.984C558.851 335.241 555.791 333.948 553.808 333.107C548.464 330.845 545.555 329.519 541.471 327.504C536.633 325.112 534.941 324.401 531.73 323.367C522.701 320.469 513.112 319.693 500.149 320.835C495.872 321.212 492.305 321.137 489.655 320.598C485.032 319.66 482.306 317.624 481.498 314.488C480.755 311.558 482.199 307.927 485.485 304.522C485.927 304.069 486.25 303.692 486.207 303.692C486.153 303.692 485.83 303.768 485.463 303.865C483.75 304.306 481.757 305.718 479.904 307.819C479.537 308.228 478.46 309.543 477.501 310.728C473.579 315.587 471.467 317.096 468.795 316.913C466.155 316.73 464.366 315.07 463.461 311.935C462.955 310.168 462.653 307.679 462.653 305.158C462.653 303.681 462.545 303.434 462.222 304.177C461.856 305.028 461.511 306.494 461.155 308.756C460.283 314.187 459.733 315.771 458.182 317.333C456.77 318.755 455.488 319.154 452.579 319.068C449.777 318.982 447.536 318.529 440.683 316.665C436.891 315.631 435.242 315.253 434.078 315.156L433.292 315.092L434.014 315.469C435.522 316.245 438.022 318.152 439.552 319.693C440.608 320.749 441.211 321.654 441.211 322.171C441.211 322.688 440.479 325.339 440.134 326.071C439.455 327.526 438.27 328.366 436.266 328.797C433.55 329.39 431.374 329.142 426.342 327.655C423.379 326.783 420.287 325.727 417.043 324.498C415.643 323.96 414.479 323.518 414.458 323.518C414.447 323.518 415.287 324.38 416.322 325.425C419.554 328.7 421.493 331.168 421.935 332.579C422.118 333.161 422.118 333.269 421.989 333.592C421.569 334.573 419.974 334.346 413.197 332.332C405.924 330.177 402.465 329.368 398.888 329.002C397.681 328.884 394.158 328.927 393.554 329.078C393.263 329.142 393.317 329.185 394.309 329.713C397.757 331.545 405.73 337.223 408.154 339.572C409.113 340.499 409.199 340.779 408.682 341.221C408.111 341.695 407.454 341.781 404.577 341.77C401.301 341.759 398.586 341.469 392.078 340.434C388.706 339.895 387.445 339.788 384.267 339.788C380.754 339.788 377.694 340.068 374.817 340.65C373.481 340.93 371.38 341.533 370.69 341.846L370.152 342.094L370.852 342.169C371.24 342.212 372.77 342.298 374.246 342.363C379.579 342.6 382.23 343.149 384.827 344.539C385.463 344.884 386.842 345.606 387.876 346.145C391.184 347.836 391.949 348.731 391.044 349.808C390.344 350.638 388.889 350.875 386.777 350.498C386.055 350.369 385.139 350.304 384.159 350.304C381.767 350.304 380.549 350.606 376.239 352.286C373.459 353.375 372.037 353.838 370.755 354.107C369.839 354.301 369.839 354.301 370.27 354.388C370.496 354.441 372.684 354.495 375.108 354.495C380 354.517 380.42 354.56 381.637 355.206C382.327 355.573 384.073 356.973 384.008 357.103C383.986 357.157 383.502 357.577 382.93 358.04C381.508 359.215 379.396 361.37 378.254 362.792C373.923 368.212 371.725 374.03 371.261 381.303L371.132 383.264L370.529 383.964C370.195 384.352 367.598 387.326 364.753 390.591C356.263 400.321 351.597 405.848 350.563 407.378C347.568 411.817 347.018 416.763 348.548 425.62C348.904 427.721 349.205 428.604 349.895 429.66C350.951 431.233 352.179 432.02 355.498 433.216C355.961 433.388 356.166 433.647 359.452 438.291C361.445 441.114 362.34 442.191 365.184 445.262C368.729 449.066 369.462 449.971 370.13 451.393C370.453 452.061 370.475 452.201 370.475 453.246C370.475 454.518 370.356 454.96 369.613 456.533C368.697 458.429 364.969 464.344 362.771 467.361C359.722 471.564 358.31 473.912 357.664 475.873C357.513 476.315 357.254 477.554 357.071 478.621C356.543 481.8 356.047 484.008 354.42 490.473C352.19 499.352 351.673 501.905 351.242 506.42C350.617 512.939 349.863 516.063 348.106 519.511C347.201 521.278 346.285 522.571 344.842 524.145C343.225 525.922 342.514 526.817 341.717 528.164C340.661 529.909 339.293 532.764 339.055 533.723C338.905 534.337 338.312 538.604 338.312 539.078C338.312 539.208 344.238 539.035 346.124 538.852C353.979 538.109 360.4 536.643 375.377 532.193C385.279 529.241 389.708 528.077 394.88 527.054C395.731 526.881 396.453 526.763 396.474 526.784C396.55 526.86 396.151 527.959 395.763 528.724C394.427 531.407 392.412 533.055 389.115 534.154C387.768 534.596 378.146 537.16 372.253 538.626C364.355 540.598 359.269 541.686 353.235 542.677C348.613 543.431 347.535 543.744 344.992 545.058C340.898 547.17 338.053 550.661 336.954 554.907C336.663 556.006 336.642 556.232 336.653 558.031C336.653 560.165 336.771 560.811 337.45 562.427C338.635 565.283 341.426 567.642 344.486 568.375C345.585 568.644 348.677 568.774 351.834 568.698C355.272 568.612 355.821 568.547 357.383 568.041C358.041 567.836 358.612 567.685 358.666 567.718C358.784 567.793 359.172 569.248 359.312 570.153C359.377 570.541 359.495 571.769 359.592 572.9C359.808 575.605 359.915 576.359 360.293 577.878C360.928 580.497 361.93 582.867 363.213 584.807C364.053 586.078 365.949 587.996 367.135 588.783C368.999 590 369.893 590.345 375.313 591.864C383.62 594.191 389.643 595.549 394.88 596.271C398.241 596.745 398.457 596.777 399.459 597.111C401.635 597.812 403.909 599.116 408.65 602.348C412.303 604.848 413.596 605.677 415.406 606.658C418.875 608.554 421.526 609.212 424.661 608.942C432.43 608.285 442.978 603.081 458.236 592.403C463.558 588.675 465.282 587.134 471.833 580.26C477.005 574.829 478.665 573.267 482.35 570.336C483.362 569.528 484.785 568.354 485.517 567.718C487.349 566.123 491.239 562.212 494.116 559.055C499.912 552.719 503.21 549.864 508.963 546.19C512.605 543.852 513.769 542.688 514.76 540.361C517.357 534.284 521.02 528.961 525.912 524.198C529.586 520.621 533.702 517.54 539.003 514.383C542.042 512.572 542.818 512.001 546.201 509.017C559.68 497.143 568.289 486.767 574.226 475.281C576.543 470.798 578.202 466.65 579.786 461.381C580.939 457.556 581.941 455.908 585.486 452.061C591.886 445.101 597.101 437.526 601.368 429.003C603.523 424.693 604.74 421.827 606.658 416.601C609.514 408.811 609.718 408.014 609.783 404.436C609.826 402.055 609.934 401.366 610.591 399.318C612.531 393.241 612.897 387.714 611.776 381.508C611.378 379.299 610.85 377.51 608.673 371.035C606.346 364.106 606.195 363.697 601.293 350.832C597.327 340.434 596.056 337.051 595.442 335.23C594.278 331.804 594.386 330.36 595.959 328.722C596.713 327.946 599.601 325.953 599.752 326.114C599.773 326.136 600.775 328.237 601.971 330.791C603.167 333.334 604.159 335.435 604.18 335.456C604.202 335.478 604.934 335.004 605.807 334.411C611.238 330.769 613.813 327.58 614.696 323.41C615.03 321.826 615.041 318.745 614.707 316.568C614.168 313.066 608.425 288.467 604.288 271.896C602.262 263.804 602.133 262.953 602.133 257.63C602.133 252.63 602.349 250.669 603.911 241.338C605.355 232.708 605.667 230.283 605.839 226.189C606.249 216.664 603.825 205.695 598.2 191.634C596.175 186.559 590.518 173.489 588.988 170.332C586.682 165.57 583.773 160.614 578.644 152.683C555.5 116.911 530.901 88.5194 503.533 66.0324C456.468 27.3509 400.03 6.22144 329.584 0.93103C321.277 0.306091 315.836 0.0475464 309.759 0.0151978C306.828 -0.00634766 303.994 -0.00634766 303.456 0.0151978ZM321.234 19.8732C328.227 20.1856 332.774 20.4658 337.989 20.9075C375.216 24.0646 410.826 32.8568 445.144 47.3704C447.816 48.5018 448.096 48.6418 448.603 49.1483C449.292 49.8163 449.519 50.5598 449.303 51.4002C449.012 52.5531 448.258 53.5228 447.256 54.0077C446.75 54.2663 446.523 54.3094 445.791 54.3094C444.95 54.2986 444.875 54.2771 442.72 53.3505C393.07 32.0056 336.771 22.9009 281.098 27.2216C242.826 30.1846 205.049 39.5479 171.303 54.4279C168.727 55.5593 168.641 55.5916 167.855 55.5916C167.208 55.6024 166.928 55.5485 166.454 55.3222C164.321 54.3094 163.599 51.6157 165.107 50.2796C165.581 49.8594 165.71 49.8055 170.71 47.6614C202.819 33.8696 236.63 25.142 272.047 21.5001C281.022 20.5843 289.287 20.0563 300.061 19.7331C302.475 19.6577 318.885 19.7654 321.234 19.8732ZM38.4816 167.326C38.9988 167.542 39.1497 167.757 39.947 169.503C42.339 174.729 44.3108 180.881 45.3991 186.505C45.7115 188.079 45.7008 188.283 45.3344 189.544C45.1405 190.169 44.4186 190.664 43.6751 190.664C42.6084 190.664 41.8649 189.867 41.8757 188.725C41.8757 187.594 40.7444 182.691 39.6884 179.297C38.9773 177.024 37.9214 174.244 36.9193 171.97C36.4452 170.904 36.0034 169.858 35.9388 169.654C35.7017 168.835 36.2082 167.833 37.0594 167.412C37.6089 167.143 37.9968 167.111 38.4816 167.326ZM30.5729 178.985C31.1009 179.297 31.2733 179.642 32.1245 181.948C34.2364 187.68 36.7792 195.75 38.1692 201.159C38.4816 202.344 38.4385 202.765 37.9968 203.325C37.3072 204.208 35.6155 204.241 35.0014 203.379C34.8936 203.217 34.4519 201.838 34.0317 200.297C32.4154 194.446 30.476 188.359 28.5904 183.23C27.7823 181.053 27.6637 180.622 27.7068 180.181C27.7607 179.588 28.0516 179.211 28.6981 178.898C29.2153 178.651 30.0773 178.694 30.5729 178.985ZM591.067 190.309C591.649 190.621 592.08 191.289 592.145 191.979C592.188 192.496 592.134 192.69 591.628 193.789C590.712 195.826 588.611 199.866 587.479 201.763C585.378 205.297 582.997 208.702 580.422 211.891C578.471 214.294 578.051 214.595 577.125 214.207C576.079 213.776 575.519 212.602 575.896 211.621C575.961 211.46 576.414 210.846 576.92 210.242C581.445 204.79 585.507 198.282 588.341 191.957C588.837 190.837 589.214 190.298 589.634 190.115C589.936 189.986 590.593 190.072 591.067 190.309ZM25.3148 191.699C25.929 192.011 26.1445 192.442 27.0173 195.168C29.1291 201.698 31.0794 208.68 32.6309 215.339C32.9218 216.589 32.9542 216.847 32.8464 217.203C32.4909 218.42 30.8746 219.078 29.948 218.388C29.42 217.989 29.2907 217.634 28.6443 214.908C27.125 208.518 25.164 201.558 23.1814 195.578C22.5996 193.832 22.4918 193.358 22.5349 192.96C22.6642 191.807 24.1727 191.117 25.3148 191.699ZM596.379 200.62C596.875 200.954 597.241 201.547 597.306 202.118C597.349 202.517 597.263 202.775 596.498 204.295C593.772 209.725 589.462 216.255 585.27 221.297C584.107 222.698 583.665 222.892 582.706 222.439C582.156 222.17 581.661 221.48 581.553 220.834C581.445 220.231 581.736 219.692 582.954 218.194C586.768 213.529 590.712 207.452 593.384 202.129C593.987 200.933 594.267 200.577 594.752 200.373C595.151 200.2 595.927 200.329 596.379 200.62ZM600.366 212.785C600.915 213.087 601.249 213.583 601.249 214.132C601.249 214.638 600.377 216.783 599.224 219.164C597.694 222.289 596.131 224.853 594.041 227.622C592.813 229.26 590.96 231.436 590.539 231.738C589.483 232.514 587.889 231.609 587.77 230.165C587.716 229.432 587.813 229.249 589.052 227.838C592.339 224.066 595.323 219.196 597.187 214.585C597.705 213.292 597.877 213.044 598.437 212.764C599.051 212.462 599.763 212.473 600.366 212.785ZM20.1753 287.422C20.6278 287.595 20.9618 287.853 21.7376 288.64C23.3215 290.256 24.2481 291.495 25.1748 293.251C26.1122 295.008 26.7048 297.066 26.7048 298.553C26.7048 299.177 26.694 299.221 26.2307 299.662C25.6381 300.233 24.7545 300.567 23.6663 300.643C22.244 300.751 21.2851 300.352 20.7679 299.458C20.5201 299.016 20.5093 298.908 20.4446 296.096C20.3692 292.896 20.2938 292.465 19.6904 291.635C19.4426 291.28 19.1732 291.086 18.5375 290.795C18.0849 290.59 17.5462 290.299 17.3523 290.159C16.4687 289.48 16.4795 288.489 17.3846 287.799C18.1604 287.207 19.2055 287.067 20.1753 287.422ZM598.028 301.979C599.041 302.259 599.806 303.466 599.666 304.597C599.536 305.739 598.965 306.558 595.894 310.049C592.554 313.842 591.52 315.706 591.52 317.893C591.52 318.615 591.584 319.003 591.789 319.585C592.102 320.458 592.134 320.953 591.886 321.19C591.369 321.708 589.968 320.964 589.214 319.768C588.686 318.917 588.578 318.335 588.643 316.687C588.675 315.846 588.783 314.801 588.88 314.359C589.677 310.728 591.628 307.312 595.194 303.261C596.282 302.011 597.004 301.688 598.028 301.979ZM144.096 345.488C143.967 345.595 133.612 353.062 133.214 353.321L132.944 353.493L133.224 352.868C135.164 348.461 136.381 347.513 142.211 345.875C143.935 345.391 144.269 345.315 144.096 345.488ZM193.553 350.132C195.083 352.588 196.429 354.7 196.537 354.829C196.645 354.948 196.979 355.163 197.281 355.303C197.572 355.443 197.798 355.616 197.766 355.681C197.744 355.745 197.087 358.051 196.3 360.809C195.524 363.557 194.813 366.067 194.727 366.369L194.565 366.94H193.951C193.078 366.94 192.852 366.854 192.852 366.552C192.852 366.067 192.292 363.288 191.613 360.368C190.385 355.131 190.115 353.278 190.126 350.293C190.126 347.944 190.449 345.294 190.686 345.563C190.74 345.617 192.023 347.675 193.553 350.132ZM147.824 353.353C147.436 355.54 147.081 357.361 147.038 357.404C146.952 357.491 132.686 361.327 132.632 361.283C132.567 361.208 133.817 359.042 134.593 357.889C135.573 356.456 137.674 354.323 139.043 353.396C140.379 352.491 141.974 351.662 143.773 350.94C145.12 350.401 148.115 349.388 148.417 349.377C148.482 349.377 148.245 350.94 147.824 353.353ZM169.449 354.625C172.736 361.477 173.436 366.445 171.884 372.069C171.529 373.373 170.57 375.991 170.441 375.991C170.408 375.991 169.805 373.125 169.094 369.623C168.383 366.121 167.768 363.212 167.736 363.158C167.661 363.018 166.411 363.481 165.484 363.999C163.846 364.893 162.155 366.38 160.118 368.718C158.082 371.045 157.231 371.95 156.304 372.715C155.356 373.502 153.891 374.45 153.783 374.342C153.75 374.31 153.826 374.084 153.955 373.836C154.418 372.92 155.162 370.862 156.11 367.824C156.638 366.121 157.263 364.203 157.511 363.546C158.599 360.626 159.838 358.568 161.541 356.866C163.189 355.228 164.816 354.247 167.208 353.461C167.887 353.235 168.501 353.041 168.566 353.041C168.63 353.041 169.029 353.752 169.449 354.625ZM465.778 353.676C466.812 354 467.75 354.603 468.73 355.573C469.635 356.467 471.553 358.73 471.467 358.805C471.413 358.87 460.294 353.763 460.283 353.676C460.283 353.547 462.686 353.385 463.892 353.418C464.679 353.45 465.315 353.536 465.778 353.676ZM457.794 357.846C465.541 359.128 470.066 362.102 473.008 367.845C473.557 368.901 473.557 368.923 473.256 368.718C473.083 368.61 471.898 367.824 470.627 366.973L468.31 365.432H462.416C459.162 365.432 456.512 365.399 456.512 365.346C456.512 365.302 456.221 363.546 455.865 361.445C455.509 359.344 455.219 357.588 455.219 357.545C455.219 357.448 455.757 357.512 457.794 357.846ZM410.826 362.382C411.171 363.966 411.29 365.863 411.15 367.468C410.988 369.408 410.729 370.798 409.846 374.375C408.984 377.855 408.725 379.288 408.607 381.044L408.531 382.284L407.799 381.508C405.59 379.191 404.502 376.982 404.394 374.536C404.243 371.412 405.385 368.729 409.587 362.372C410.245 361.38 410.449 361.133 410.525 361.273C410.579 361.37 410.708 361.865 410.826 362.382ZM435.932 365.432C439.089 365.82 442.019 367.36 444.099 369.731C446.071 371.961 447.59 374.806 448.894 378.685C449.519 380.516 450.51 384.212 450.456 384.471C450.435 384.546 447.234 381.96 443.097 378.534C439.067 375.204 435.759 372.478 435.738 372.489C435.727 372.5 435.037 375.851 434.208 379.935C433.378 384.018 432.688 387.402 432.667 387.455C432.624 387.585 431.665 385.613 431.245 384.514C429.553 380.118 429.499 376.088 431.072 371.358C431.654 369.623 432.333 367.985 433.141 366.38L433.669 365.324H434.348C434.714 365.324 435.436 365.378 435.932 365.432ZM527.582 369.429C537.247 369.989 546.384 373.222 553.108 378.437C555.78 380.516 558.807 383.792 560.822 386.809C562.697 389.6 563.656 392.11 563.947 394.987C564.281 398.306 563.161 402.659 560.747 407.464C560.424 408.111 560.165 408.757 560.165 408.897C560.165 409.048 560.618 410.438 561.178 412C562.622 416.041 562.686 416.3 562.611 417.711C562.449 420.448 561.35 423.917 559.788 426.654C557.816 430.081 555.176 433.238 549.714 438.711C544.768 443.668 541.46 446.372 537.323 448.85C531.655 452.255 525.686 453.914 521.096 453.365C517.443 452.923 513.672 451.339 510.87 449.044C509.718 448.107 508.037 446.297 507.304 445.219C506.571 444.142 506.119 443.355 506.194 443.301C506.28 443.215 514.211 440.123 514.243 440.155C514.264 440.177 514.178 441.61 514.06 443.344C513.93 445.09 513.833 446.728 513.833 446.975V447.45L514.297 447.374C516.387 447.04 521.559 446.049 523.531 445.607C537.139 442.569 545.458 437.677 550.414 429.811C551.19 428.583 552.493 425.921 552.989 424.575C554.261 421.105 554.81 417.991 554.81 414.188C554.81 409.124 553.7 404.824 551.308 400.633C548.399 395.537 544.154 391.571 538.777 388.921C536.17 387.628 533.228 386.658 531.105 386.378C530.481 386.303 530.33 386.119 530.89 386.119C531.806 386.119 534.273 386.367 535.437 386.561C540.135 387.391 545.414 389.761 550.953 393.532C552.946 394.89 553.959 395.655 555.263 396.786C557.935 399.103 559.109 399.739 560.003 399.308C560.661 398.995 561.135 397.627 561.135 396.021C561.135 394.61 560.338 392.638 559.045 390.828C557.299 388.393 553.786 384.665 551.491 382.833C547.645 379.751 543.216 377.532 538.659 376.39C535.717 375.646 533.077 375.345 529.662 375.345C526.192 375.345 523.1 375.7 518.898 376.594C508.306 378.846 502.337 381.831 500.505 385.775C499.589 387.736 499.611 389.955 500.537 391.733C501.141 392.886 502.261 393.985 504.675 395.817C506 396.819 507.142 397.788 507.703 398.381C509.287 400.051 510.741 402.282 512.562 405.891C513.866 408.477 514.383 409.285 515.439 410.395C517.087 412.119 518.995 413.229 521.344 413.821C523.24 414.295 524.544 414.112 527.517 412.949C529.381 412.216 531.892 411.462 532.797 411.375C533.993 411.246 534.683 411.634 537.053 413.735C539.165 415.599 539.337 415.987 538.95 417.83C538.249 421.148 536.859 423.896 534.855 425.889C533.401 427.344 531.978 428.238 530.017 428.938C527.711 429.757 525.923 430.016 522.507 430.027C519.447 430.027 518.574 429.951 518.574 429.671C518.574 429.563 519.016 427.785 519.555 425.717C520.104 423.637 520.568 421.849 520.589 421.719C520.708 421.202 513.92 414.048 511.409 412.044C508.802 409.975 505.688 408.165 503.188 407.281C502.498 407.033 502.542 407.001 502.089 408.391C501.647 409.759 501.496 411.192 501.658 412.539C501.852 414.274 502.218 415.416 503.522 418.379C504.47 420.556 504.934 421.762 505.16 422.635C505.311 423.217 505.321 423.443 505.214 424.09C505.041 425.113 504.837 425.544 503.996 426.686C502.671 428.475 501.507 431.072 501.076 433.205C500.494 436.114 500.602 439.541 501.399 443.527C501.55 444.282 502.014 446.297 502.423 448.021C503.296 451.695 503.544 452.277 504.998 454.195C506.69 456.436 507.056 456.824 508.241 457.632C508.856 458.052 509.847 458.795 510.439 459.291C511.829 460.444 514.879 463.493 515.816 464.668C518.187 467.641 519.663 470.669 520.32 473.956C520.525 474.99 520.568 475.507 520.557 477.382C520.557 480.388 520.395 481.261 518.833 486.81C516.732 494.255 514.9 498.565 512.099 502.713C510.978 504.362 510.914 504.416 510.978 503.608C511.01 503.252 511.14 501.787 511.258 500.332C511.377 498.878 511.646 495.99 511.851 493.921C512.271 489.827 512.271 489.245 511.948 486.056C511.776 484.439 511.398 481.638 511.28 481.175C511.248 481.045 511.183 480.938 511.14 480.938C511.086 480.938 509.265 483.696 507.078 487.068C504.901 490.441 503.113 493.199 503.102 493.189C503.091 493.178 503.22 492.758 503.393 492.251C503.975 490.495 504.481 487.521 504.847 483.631C505.02 481.735 505.181 474.333 505.063 473.686L504.987 473.298L504.535 473.46C503.878 473.697 502.488 474.462 500.958 475.442C500.225 475.917 499.6 476.304 499.578 476.304C499.557 476.304 499.503 475.981 499.471 475.572C499.428 475.173 499.158 472.35 498.857 469.301C497.553 455.886 497.24 451.285 496.755 439.024C496.163 424.101 496.077 422.969 494.557 412.571C493.62 406.139 493.318 403.251 493.189 399.534C493.038 394.944 493.674 390.3 494.924 386.917C497.122 380.98 501.82 376.023 508.123 372.985C513.747 370.27 520.611 369.009 527.582 369.429ZM91.8384 372.812C97.3767 373.567 102.29 375.571 106.708 378.9C108.593 380.322 109.617 381.292 110.587 382.574C112.364 384.945 113.291 387.639 113.56 391.237C113.701 393.037 113.765 391.668 112.041 422.215C110.199 454.776 109.746 463.709 109.735 467.577C109.725 471.014 109.778 471.66 110.436 477.533C110.673 479.655 110.856 481.412 110.834 481.422C110.813 481.444 109.886 480.345 108.766 478.987C107.645 477.63 106.697 476.52 106.654 476.52C106.514 476.52 105.684 478.222 105.372 479.16C104.854 480.711 104.682 482.004 104.693 484.278C104.693 486.637 104.887 488.264 105.684 492.607C105.986 494.255 106.223 495.645 106.201 495.699C106.169 495.796 103.852 492.617 102.365 490.419C100.889 488.243 100.07 487.349 98.9606 486.713C98.0663 486.196 98.0771 486.185 97.9154 487.37C97.7323 488.652 97.7323 491.917 97.9154 493.706C97.9909 494.417 98.2171 496.259 98.4219 497.8C98.6266 499.341 98.8636 501.345 98.9498 502.261C99.1114 503.974 99.1545 507.174 99.0252 507.918L98.9498 508.349L98.2064 507.497C93.8102 502.455 91.0411 495.139 90.1037 486.056C89.9852 484.935 89.9205 483.34 89.9205 481.476C89.9098 478.933 89.9421 478.502 90.1468 477.522C90.8579 474.214 92.8405 470.497 95.7066 467.092C96.0083 466.736 97.0535 465.616 98.034 464.614C99.0145 463.601 100.21 462.297 100.685 461.705C104.186 457.298 106.115 452.19 107.02 444.896C107.57 440.543 107.699 437.063 107.376 435.446C107.096 434.024 106.848 433.313 105.63 430.242C104.423 427.214 104.046 425.986 103.852 424.327C103.626 422.42 103.82 421.148 104.887 417.593C106.223 413.153 106.471 411.871 106.481 409.576C106.481 408.66 106.438 407.949 106.374 407.884C106.223 407.734 103.755 408.973 102.398 409.878C98.6697 412.367 95.3187 415.933 90.8148 422.215C89.0693 424.639 88.7676 425.232 88.7676 426.202C88.7676 426.589 89.0801 428.701 89.4572 430.889C89.8343 433.087 90.136 434.886 90.1253 434.897C90.1037 434.918 78.3807 434.369 75.6655 434.218L74.351 434.143L72.2822 428.561C70.4613 423.659 70.2242 422.948 70.3535 422.797C70.6229 422.463 72.3899 421.159 73.2842 420.609C75.2991 419.392 77.077 418.896 80.6327 418.551C84.1345 418.207 85.7399 418.013 86.4941 417.84C89.3171 417.194 91.8492 415.222 93.724 412.205C94.4028 411.106 95.4157 409.102 96.31 407.076C97.8185 403.65 99.7902 400.655 102.883 397.045C105.264 394.276 106.158 392.854 106.675 390.968C106.869 390.235 106.837 387.94 106.611 387.035C106.137 385.096 105.07 383.781 103.292 382.941C101.676 382.187 96.4716 380.7 93.5085 380.15C90.5993 379.611 89.1663 379.493 85.5891 379.493C82.0226 379.493 80.8374 379.59 77.9821 380.15C68.5757 381.971 60.0959 387.617 54.8162 395.601C53.297 397.896 51.8532 400.73 51.0666 402.982C50.8511 403.575 50.6033 404.695 50.3986 405.945C50.0107 408.369 49.7952 409.317 49.5474 409.845L49.3534 410.255L49.9568 409.781C50.3016 409.522 55.1503 405.762 60.7532 401.43C66.356 397.088 71.4741 393.188 72.1206 392.757C74.9974 390.839 77.5295 390.009 79.566 390.311C80.0293 390.375 80.4495 390.472 80.4926 390.515C80.5357 390.559 80.1262 390.763 79.5767 390.957C74.6419 392.735 69.8148 395.763 65.9897 399.48C58.6305 406.635 55.1287 415.438 55.9153 424.769C56.2385 428.637 57.1975 432.117 58.8891 435.554C61.3134 440.5 64.8368 444.206 69.5669 446.825C73.629 449.077 78.4993 450.413 84.8348 451.005C86.4295 451.156 95.3618 451.21 95.5019 451.07C95.545 451.027 95.4157 449.529 95.211 447.73C95.0062 445.93 94.8554 444.443 94.8769 444.411C94.92 444.368 99.7256 444.788 100.555 444.917L100.965 444.982L100.889 445.693C100.437 450.251 97.2797 454.432 92.4849 456.802C89.4357 458.321 87.0329 458.828 83.391 458.709C78.7686 458.569 74.0277 457.158 68.3494 454.227C56.4001 448.053 50.0322 440.704 48.847 431.718C48.4483 428.701 48.7931 426.029 49.9891 422.948C50.2908 422.161 50.5925 421.224 50.6464 420.868C50.8403 419.715 50.4848 418.648 49.2995 416.817C46.5089 412.496 45.8624 407.572 47.3493 402.066C48.3837 398.241 50.7972 394.06 54.3529 389.891C55.7536 388.242 59.3093 384.708 60.8825 383.393C67.6383 377.726 74.7496 374.256 82.1304 373.028C83.0247 372.877 84.2422 372.715 84.8348 372.662C86.3541 372.522 90.2977 372.608 91.8384 372.812ZM215.264 375.776C220.608 376.185 224.261 377.769 227.666 381.163C229.821 383.307 231.264 385.613 232.169 388.36C232.493 389.33 232.934 391.27 232.934 391.711C232.934 391.841 232.967 391.938 233.021 391.938C233.064 391.938 234.357 391.474 235.898 390.914C237.428 390.354 238.742 389.891 238.807 389.891C238.871 389.891 239.033 390.311 239.162 390.828C239.292 391.356 239.755 393.166 240.186 394.858L240.983 397.939H238.71C236.048 397.929 235.219 398.058 233.818 398.726C232.784 399.221 231.825 400.105 231.232 401.107C230.952 401.592 228.991 406.193 224.304 417.442C223.938 418.304 223.744 418.433 223.259 418.185C222.731 417.916 222.537 417.355 222.537 416.181C222.548 415.211 222.58 415.082 223.119 413.649C223.442 412.819 224.153 411.052 224.713 409.716C228.118 401.624 228.84 399.028 228.84 394.976C228.84 392.509 228.441 390.397 227.612 388.49C227.019 387.111 225.823 385.43 224.961 384.729L224.541 384.395L224.422 384.988C224.196 386.076 223.614 387.046 222.548 388.123C220.554 390.128 218.744 390.849 213.486 391.733C209.392 392.423 208.163 392.778 205.879 393.953C203.25 395.299 200.772 397.519 199.155 399.976C198.692 400.676 197.916 401.861 197.421 402.605C196.343 404.243 195.309 405.298 193.606 406.505C191.204 408.208 190.396 408.865 189.329 409.964C187.045 412.334 185.482 415.319 184.75 418.692C184.556 419.618 184.513 420.135 184.502 421.946C184.502 424.435 184.62 425.135 185.331 426.622C185.892 427.807 187.012 428.938 188.812 430.145C193.887 433.561 199.339 435.867 205.243 437.095C205.868 437.224 206.396 437.343 206.407 437.364C206.439 437.386 188.338 457.158 186.29 459.334C185.892 459.744 183.823 461.931 181.69 464.183C179.545 466.435 177.229 468.902 176.528 469.678C173.759 472.738 170.979 476.229 169.794 478.136C168.404 480.367 167.176 483.34 166.659 485.786C166.454 486.734 166.411 487.252 166.411 489.019C166.4 490.85 166.432 491.238 166.648 492.079C167.122 493.943 168.189 495.893 169.352 497.035L169.891 497.563L170.01 497.251C170.257 496.593 170.872 494.061 171.195 492.359C172.509 485.388 172.8 484.116 173.619 481.994C174.136 480.668 174.578 480.011 175.817 478.783C178.985 475.636 184.319 472.178 187.745 471.036C189.458 470.464 188.758 469.635 193.219 477.511C195.352 481.293 197.108 484.375 197.119 484.353C197.13 484.342 197.076 483.998 196.99 483.599C196.332 480.431 196.246 475.507 196.796 471.197C197.647 464.441 200.028 458.558 203.261 455.186C205.469 452.891 207.29 451.889 210.523 451.188C212.516 450.757 213.518 450.272 214.563 449.227C216.244 447.546 216.815 446.049 218.281 439.562C218.529 438.463 218.884 437.03 219.078 436.384C219.477 435.015 220.123 433.313 220.242 433.313C220.285 433.313 220.328 433.475 220.328 433.658C220.328 434.638 221.093 437.235 221.912 439.056C223.269 442.105 224.929 444.53 229.648 450.391C233.883 455.649 235.305 457.686 236.641 460.358C237.837 462.76 238.419 464.722 238.656 467.081C238.774 468.299 238.731 469.064 238.408 471.402C238.279 472.307 238.182 473.568 238.182 474.257C238.193 476.207 238.58 477.134 240.186 479.149C241.63 480.948 242.136 481.843 242.578 483.383C243.041 484.967 243.171 486.325 243.278 490.581C243.429 496.518 243.774 497.994 245.724 500.893C246.575 502.153 247.524 503.198 250.476 506.097C252.038 507.638 253.687 509.329 254.128 509.857C255.001 510.892 255.734 511.937 255.648 512.023C255.551 512.12 253.784 512.605 251.543 513.154C238.052 516.441 223.636 516.257 209.952 512.615C204.845 511.247 199.845 509.394 194.932 507.013C193.843 506.485 192.96 506.097 192.96 506.14C192.96 506.183 193.369 507.045 193.865 508.047C195.945 512.206 198.261 515.449 201.354 518.542C206.364 523.552 212.279 526.558 219.067 527.582C221.567 527.959 223 528.056 225.931 528.056C230.219 528.045 232.751 527.786 239.345 526.677C243.332 526.009 245.304 525.815 247.039 525.912C253.417 526.267 257.706 530.081 257.167 534.909C256.844 537.764 255.12 539.606 252.415 539.983C250.53 540.253 248.299 539.477 244.302 537.182C240.272 534.865 238.16 534.014 234.669 533.303C231.006 532.56 229.056 532.441 219.628 532.333C210.404 532.226 208.486 532.107 206.525 531.461C203.756 530.545 202.539 529.069 200.879 524.576C200.19 522.69 199.489 521.192 198.962 520.449C198.531 519.845 198.627 519.781 197.518 521.451C195.223 524.91 193.693 528.551 192.852 532.549C191.861 537.268 192.173 539.003 194.285 540.436C195.837 541.492 199.155 542.796 202.28 543.582C204.823 544.218 206.547 544.433 210.9 544.671C216.374 544.961 218.626 545.306 220.77 546.179C222.429 546.847 224.131 548.226 224.821 549.444L225.144 550.015L228.506 546.448C230.359 544.498 231.9 542.893 231.932 542.893C232.126 542.893 232.73 543.378 232.967 543.722C233.527 544.541 233.861 545.662 234.497 548.851C235.316 553.032 235.316 556.372 234.475 558.936C232.741 564.302 227.375 568.106 219.11 569.819C218.27 569.991 215.662 570.455 213.324 570.843C207.937 571.748 205.61 572.308 202.711 573.439C202.517 573.515 202.517 573.504 202.657 573.364C202.743 573.278 205.739 570.595 209.305 567.416C212.872 564.238 215.953 561.436 216.158 561.178C216.815 560.38 217.031 559.841 217.031 559.001C217.042 558.462 216.977 558.128 216.826 557.816C216.384 556.9 215.275 556.113 213.755 555.607C212.333 555.144 211.396 555.09 203.034 554.96C191.451 554.799 189.243 554.626 185.331 553.603C180.343 552.31 176.97 549.864 174.61 545.834C173.382 543.733 172.412 541.083 171.033 536.051C169.137 529.069 167.79 526.062 165.592 523.821C163.825 522.022 161.853 521.138 159.601 521.128C158.47 521.128 157.683 521.289 156.81 521.72L156.089 522.065L155.981 521.785C155.927 521.634 155.496 520.363 155.033 518.973C153.557 514.577 152.791 511.635 152.317 508.575C152.048 506.776 151.94 502.994 152.113 501.399C152.533 497.822 153.535 494.848 155.216 492.262C155.539 491.766 155.787 491.346 155.765 491.335C155.744 491.314 153.987 491.098 151.854 490.85C149.721 490.603 147.943 490.366 147.911 490.333C147.867 490.29 147.684 489.202 147.48 487.909C147.275 486.519 147.081 485.571 147.005 485.571C146.941 485.571 144.7 486.508 142.017 487.661L137.146 489.751V489.396C137.146 488.846 137.631 487.112 138.062 486.109C138.612 484.827 139.151 483.922 141.219 480.798C143.568 477.253 144.387 475.593 144.861 473.374C145.077 472.339 145.077 470.529 144.861 469.592C144.678 468.827 144.215 467.792 144.042 467.792C143.988 467.792 143.105 468.159 142.081 468.611C139.571 469.721 139.485 469.753 139.549 469.656C139.603 469.559 142.049 464.161 142.275 463.633L142.415 463.299L141.015 462.297L139.614 461.306L140.013 460.584C141.564 457.793 144.161 454.421 146.736 451.846C149.936 448.646 153.298 446.21 157.543 444.023C158.718 443.409 159.935 442.719 160.248 442.493C162.09 441.103 162.521 438.237 161.379 434.972C160.926 433.669 159.935 431.718 158.502 429.305C155.981 425.059 155.216 423.098 155.237 420.814C155.237 419.069 155.765 417.593 157.123 415.491C159.106 412.442 172.154 392.757 172.757 391.927C174.858 389.007 177.315 386.313 179.06 385.02C181.506 383.221 183.726 382.38 186.333 382.273C188.187 382.197 189.393 382.38 193.154 383.318C197.087 384.288 197.862 384.428 199.716 384.438C200.556 384.449 201.267 384.417 201.31 384.385C201.343 384.341 200.836 382.919 200.19 381.206C199.533 379.504 199.005 378.103 199.026 378.081C199.037 378.071 199.985 377.844 201.116 377.564C207.43 376.034 211.643 375.506 215.264 375.776ZM400.159 394.028C401.194 394.125 402.131 394.2 402.239 394.2C402.336 394.2 402.422 394.254 402.422 394.319C402.422 394.394 401.786 396.151 401.011 398.23C400.224 400.31 399.567 402.098 399.534 402.195C399.502 402.335 399.75 402.238 400.493 401.829C402.228 400.87 405.967 399.092 407.54 398.478C409.458 397.724 411.57 397.077 413.358 396.711C414.608 396.452 415.007 396.42 417.076 396.42C419.608 396.409 420.297 396.506 422.097 397.11C424.64 397.972 426.784 399.448 429.273 402.044C430.404 403.23 448.624 424.758 449.357 425.771C450.284 427.064 450.435 428.206 449.885 429.865C449.713 430.371 448.603 432.731 447.407 435.112C444.573 440.748 443.84 442.644 443.463 445.241C443.28 446.598 443.377 448.344 443.668 448.915C443.98 449.507 444.627 449.96 445.51 450.219C445.898 450.326 446.836 450.596 447.579 450.8C452.256 452.115 456.889 454.529 461.026 457.804C462.675 459.108 465.713 462.136 466.963 463.73C467.47 464.366 467.89 464.937 467.911 464.98C467.933 465.034 467.06 465.422 465.972 465.853C464.894 466.273 463.989 466.639 463.968 466.65C463.946 466.672 464.884 468.019 466.047 469.635C467.232 471.294 468.094 472.598 468.019 472.619C467.944 472.63 466.64 472.479 465.131 472.275C463.623 472.081 462.373 471.93 462.352 471.941C462.341 471.951 462.222 472.253 462.093 472.598C461.931 473.061 461.856 473.568 461.824 474.473C461.759 476.11 462.061 477.328 462.976 479.16C463.774 480.754 464.506 481.778 466.64 484.278C469.226 487.305 470.152 488.62 470.853 490.301C471.165 491.055 471.532 492.402 471.402 492.337C471.359 492.316 470.982 492.122 470.562 491.906C469.581 491.4 467.922 490.829 466.694 490.57C465.358 490.29 462.33 490.29 461.069 490.559C459.83 490.818 458.774 491.163 458.774 491.292C458.774 491.378 461.683 496.119 462.513 497.391C462.696 497.66 461.651 497.197 458.354 495.548C457.449 495.085 456.447 494.6 456.124 494.46L455.542 494.201L453.796 495.818C452.827 496.701 452.029 497.466 452.008 497.509C451.997 497.563 452.245 497.994 452.579 498.49C455.337 502.616 456.145 508.478 454.841 514.932C454.464 516.818 453.818 519.059 452.902 521.731C451.803 524.963 451.383 526.03 451.253 526.009C449.26 525.567 447.428 525.782 445.543 526.677C443.269 527.754 441.416 529.435 439.768 531.892C438.313 534.079 437.548 536.137 436.083 541.858C434.93 546.373 434.165 548.776 433.303 550.586C430.372 556.76 424.122 561.598 415.891 564.065C411.484 565.38 407.206 566.069 399.243 566.759C397.466 566.91 395.699 567.082 395.311 567.136C393.964 567.351 392.552 567.793 391.432 568.343C390.537 568.774 390.16 569.032 389.589 569.603C388.663 570.541 388.372 571.241 388.436 572.426C388.512 573.816 389.223 574.915 390.785 576.068C391.227 576.402 394.341 578.439 397.703 580.594C401.064 582.759 403.801 584.537 403.79 584.559C403.737 584.613 380.258 582.339 379.03 582.167C376.024 581.736 374.224 580.982 372.619 579.495C370.669 577.685 369.44 575.206 368.956 572.114C368.697 570.476 368.794 567.653 369.171 565.477C369.451 563.882 370.345 560.035 370.496 559.755C370.561 559.658 371.865 560.488 375.323 562.837C377.931 564.604 380.097 566.048 380.14 566.058C380.312 566.069 381.013 564.981 381.53 563.904C381.831 563.279 382.37 562.18 382.715 561.458C383.728 559.357 384.838 558.344 386.885 557.665C387.251 557.536 392.488 556.243 398.511 554.788C404.534 553.333 409.76 552.051 410.115 551.933C412.303 551.2 413.412 549.972 413.585 548.108C413.8 545.737 412.098 539.994 409.738 535.189C409.275 534.241 408.661 533.066 408.37 532.57L407.853 531.676L407.206 532.107C405.277 533.4 403.737 535.447 403.025 537.667C402.875 538.141 402.648 539.132 402.53 539.876C402.131 542.375 401.668 542.871 398.974 543.765C395.677 544.843 392.423 545.576 384.32 547.041C376.95 548.377 374.268 548.959 370.992 549.95C366.122 551.426 362.728 553.075 358.795 555.909C355.562 558.236 354.205 559.012 352.481 559.497C351.36 559.82 349.464 559.841 348.494 559.551C346.07 558.818 344.777 557.169 344.777 554.81C344.777 552.191 346.285 549.918 349.119 548.259C352.018 546.567 358.084 544.929 366.65 543.539C376.681 541.912 378.599 541.557 382.004 540.684C387.24 539.337 391.087 537.667 395.052 535.016C397.509 533.379 400.235 530.89 401.797 528.885C404.06 525.955 405.568 522.647 406.01 519.619C406.193 518.412 406.312 517.033 406.226 517.033C406.204 517.033 404.836 517.572 403.198 518.229C386.389 524.953 368.762 530.178 351.026 533.68C347.858 534.305 347.6 534.327 346.576 534.025C345.994 533.863 345.531 533.4 345.531 533.012C345.531 532.732 345.65 532.614 346.425 532.086C351.371 528.713 355.228 523.52 357.092 517.734C357.868 515.32 358.159 513.521 358.622 508.273C359.021 503.791 359.797 501.27 361.424 499.147C363.223 496.809 363.406 496.399 363.417 494.859C363.417 494.137 363.32 493.404 363.072 492.219C362.749 490.689 362.728 490.441 362.728 488.426C362.728 485.937 362.879 485.032 363.697 482.565C364.926 478.869 366.822 475.69 371.617 469.301C374.505 465.454 375.916 463.407 377.112 461.284C378.901 458.095 379.989 454.841 380.194 452.061C380.247 451.199 380.291 451.059 380.495 450.919C381.734 450.111 383.663 451.598 384.601 454.087C384.816 454.647 386.982 463.353 388.264 468.816C388.458 469.667 388.781 470.346 389.762 472.048C390.645 473.568 391.238 474.99 391.636 476.531C391.992 477.942 392.294 480.022 392.305 481.293C392.315 481.778 392.348 482.295 392.391 482.446C392.466 482.694 392.52 482.64 393.102 481.746C393.447 481.207 394.826 478.955 396.151 476.735C397.487 474.516 398.931 472.156 399.362 471.488C399.987 470.529 400.138 470.217 400.127 469.904C400.052 467.329 407.993 469.926 415.513 474.936C421.537 478.955 426.116 483.717 428.282 488.211C429.187 490.085 429.661 491.637 429.887 493.501C429.962 494.072 430.307 495.343 430.921 497.186C432.031 500.591 432.473 502.326 432.559 503.629C432.613 504.405 432.581 504.685 432.451 504.955C432.365 505.138 432.311 505.289 432.333 505.289C432.495 505.289 433.324 504.664 433.723 504.243C435.404 502.487 435.781 499.298 434.897 494.137C434.606 492.413 432.656 484.515 432.279 483.524C431.74 482.09 430.501 480.323 429.208 479.138C427.549 477.619 425.685 476.412 421.407 474.074C417.819 472.124 416.753 471.499 415.46 470.615C413.272 469.118 410.201 466.618 407.001 463.719C404.879 461.791 396.582 453.483 396.625 453.333C396.647 453.268 400.86 450.844 405.978 447.945C411.107 445.036 415.643 442.439 416.052 442.17C417.173 441.437 418.056 440.489 418.541 439.498C418.951 438.679 418.961 438.646 418.994 437.203C419.026 436.017 418.994 435.522 418.8 434.606C418.164 431.492 416.774 428.669 414.651 426.191C413.682 425.059 412.529 424.101 410.008 422.312C407.809 420.75 406.139 419.23 405.364 418.067C405.127 417.711 404.555 416.763 404.092 415.966C402.347 412.938 401.172 411.537 399.233 410.169C396.69 408.359 393.738 407.421 390.57 407.421C388.727 407.421 387.758 407.583 385.56 408.262C382.758 409.134 382.327 409.221 380.98 409.231C379.817 409.231 379.698 409.21 379.041 408.897C378.524 408.649 378.082 408.305 377.317 407.55C376.185 406.419 375.754 406.16 375 406.16C374.084 406.16 373.319 406.742 372.748 407.852C372.285 408.779 372.231 409.156 372.145 411.817C372.08 414.015 372.026 414.511 371.832 415.114C371.574 415.933 371.111 416.612 370.647 416.892C370.464 417 370.313 417.118 370.313 417.162C370.313 417.205 372.307 421.482 374.731 426.676C377.166 431.88 379.148 436.179 379.148 436.244C379.148 436.319 378.89 436.341 378.373 436.308C377.371 436.244 376.81 435.964 375.97 435.102C374.925 434.024 374.074 432.397 373.115 429.617C371.541 425.038 369.419 422.204 366.488 420.75C365.109 420.071 364.075 419.823 362.555 419.823C361.09 419.812 360.282 419.995 359.14 420.599C358.709 420.814 358.353 420.943 358.353 420.879C358.353 420.663 360.271 412.496 360.336 412.431C360.39 412.378 366.154 413.293 366.65 413.433C366.779 413.477 366.865 413.207 367.059 412.119C367.522 409.501 368.74 406.462 370.195 404.243C374.321 397.961 380.431 394.664 389.385 393.888C390.979 393.748 397.897 393.845 400.159 394.028ZM210.566 408.262C211.159 408.348 211.805 408.466 211.977 408.52C212.29 408.606 212.279 408.617 211.493 408.962C204.166 412.227 201.644 416.44 204.09 421.31C204.791 422.711 205.728 423.917 207.355 425.523L208.788 426.934L207.851 427.311C206.461 427.861 205.566 428.055 204.381 428.044C201.989 428.033 199.339 426.88 194.145 423.583C193.402 423.109 192.777 422.711 192.766 422.7C192.68 422.624 194.005 419.597 194.802 418.013C197.744 412.173 201.3 409.037 205.836 408.272C207.01 408.068 209.241 408.068 210.566 408.262ZM403.435 431.794C405.902 434.423 407.917 436.61 407.917 436.642C407.917 436.675 407.702 436.847 407.443 437.009C407.174 437.17 405.859 438.129 404.502 439.131C400.73 441.933 399.093 442.827 396.636 443.452C395.505 443.743 392.671 444.077 392.542 443.937C392.509 443.905 393.08 443.258 393.813 442.493C394.546 441.739 395.462 440.683 395.828 440.155C396.69 438.937 397.616 437.073 397.897 435.964C398.629 433.087 398.026 430.124 396.108 427.15L395.634 426.417L395.882 426.266C396.011 426.18 396.399 425.943 396.755 425.738L397.39 425.372L398.166 426.191C398.597 426.643 400.957 429.165 403.435 431.794Z" fill="#E6F4EF"/>
</g>
<path d="M224.864 453.483C223.323 458.127 223.086 459.635 223.086 464.495C223.086 467.199 223.119 467.954 223.226 467.986C223.808 468.18 225.306 469.419 227.278 471.348C228.528 472.565 229.885 473.837 230.316 474.181C231.038 474.763 232.762 475.873 232.945 475.873C233.193 475.873 233.84 473.438 234.271 470.863C234.562 469.128 234.863 467.889 235.197 467.005C235.477 466.273 235.467 466.23 235.079 466.068C234.54 465.842 233.495 465.131 232.913 464.581C231.792 463.536 231.103 462.211 230.403 459.754C229.497 456.522 228.991 455.272 228.011 453.795C227.439 452.933 225.899 451.199 225.715 451.199C225.672 451.199 225.284 452.233 224.864 453.483Z" fill="white"/>
<path d="M373.955 470.023C373.384 471.197 372.684 472.781 372.414 473.557C370.464 479.063 369.57 480.722 366.757 484.019C366.197 484.677 365.615 485.452 365.464 485.743C365.12 486.444 365.109 487.273 365.454 487.941C365.734 488.48 367.566 490.344 369.074 491.616L370.055 492.445L371.983 491.853C376.315 490.549 378.114 489.504 379.181 487.715C379.86 486.573 380.032 485.862 380.086 483.933C380.183 480.97 379.924 479.289 378.34 472.964C377.78 470.745 377.295 468.741 377.252 468.514C377.22 468.299 377.155 468.094 377.112 468.073C377.08 468.051 376.584 468.008 376.024 467.965L374.989 467.89L373.955 470.023Z" fill="white"/>
<defs>
<filter id="filter0_i_101_3" x="0" y="0" width="614.952" height="613" filterUnits="userSpaceOnUse" color-interpolation-filters="sRGB">
<feFlood flood-opacity="0" result="BackgroundImageFix"/>
<feBlend mode="normal" in="SourceGraphic" in2="BackgroundImageFix" result="shape"/>
<feColorMatrix in="SourceAlpha" type="matrix" values="0 0 0 0 0 0 0 0 0 0 0 0 0 0 0 0 0 0 127 0" result="hardAlpha"/>
<feOffset dy="4"/>
<feGaussianBlur stdDeviation="2"/>
<feComposite in2="hardAlpha" operator="arithmetic" k2="-1" k3="1"/>
<feColorMatrix type="matrix" values="0 0 0 0 0 0 0 0 0 0 0 0 0 0 0 0 0 0 0.25 0"/>
<feBlend mode="normal" in2="shape" result="effect1_innerShadow_101_3"/>
</filter>
</defs>
</svg>
