<svg width="615" height="609" viewBox="0 0 615 609" fill="none" xmlns="http://www.w3.org/2000/svg">
<path d="M303.456 0.0161622C293.133 0.39328 286.184 0.96433 271.562 2.6021C268.125 2.97922 262.716 3.58259 259.548 3.93816C253.234 4.63852 249.291 5.14496 245.487 5.72679C203.239 12.1809 164.364 28.2353 127.988 54.2349C102.538 72.4335 78.5747 95.7071 56.3247 123.862C49.9784 131.9 40.6151 144.506 38.848 147.405C36.9301 150.562 34.3764 155.647 29.5924 165.883C25.6273 174.352 24.5498 176.55 23.2138 178.975C18.8607 186.862 17.3092 191.258 17.0182 196.505C16.792 200.46 17.3415 204.91 19.0008 212.754C20.0675 217.818 20.283 219.833 20.283 224.822C20.283 229.81 19.9598 232.967 18.9362 238.161C17.4923 245.455 15.6283 251.478 10.1547 266.498C6.32964 276.961 4.78885 281.583 3.32347 286.981C1.84732 292.39 1.39478 295.59 1.52408 299.706C1.70725 305.288 3.10798 309.371 5.7909 312.13C6.24344 312.604 7.00845 313.25 7.50409 313.574C8.36608 314.155 9.94997 314.899 10.3163 314.899C10.4241 314.899 11.2645 313.854 12.5359 312.119C17.2337 305.74 16.7704 306.322 16.8997 306.656C17.1044 307.195 17.4385 308.596 17.6001 309.565C18.2573 313.53 17.5678 318.142 15.5098 323.465C14.4969 326.083 13.538 328.152 11.0921 333.001C8.56002 338.032 7.74114 339.767 6.70676 342.235C3.1834 350.693 1.07154 359.507 0.241879 369.204C0.0156086 371.984 -0.0813646 378.384 0.0802574 381.326C1.08231 399.858 7.06233 416.538 17.8479 430.879C23.2676 438.087 28.8382 443.959 42.2744 456.652C45.356 459.551 49.1379 463.149 50.6679 464.636C62.865 476.467 70.138 485.776 75.0298 495.84C77.4002 500.71 79.0272 505.171 82.3028 515.795C85.6106 526.538 87.1945 530.847 89.6296 535.761C90.9549 538.444 91.6122 539.586 93.1314 541.87C96.4932 546.913 100.189 550.522 105.544 554.035C109.703 556.75 114.164 558.948 124.131 563.193C133.709 567.266 137.718 569.292 142.372 572.427C145.615 574.615 148.018 576.683 153.481 581.985C160.161 588.471 162.252 590.324 165.215 592.415C172.606 597.619 179.599 598.718 186.926 595.83C189.738 594.72 192.26 593.309 197.593 589.872C201.246 587.523 202.463 586.769 204.252 585.788C207.431 584.032 210.652 582.825 216.471 581.198C225.209 578.741 227.385 578.009 230.564 576.393C237.277 572.988 241.447 568.193 242.459 562.708C242.556 562.213 242.729 560.694 242.847 559.336C243.289 554.293 243.785 552.817 245.649 550.953C246.478 550.134 246.737 549.951 247.814 549.423C249.323 548.69 250.519 548.335 253.633 547.688C257.264 546.945 258.6 546.546 260.119 545.792C261.865 544.909 263.33 543.486 264.117 541.892C264.817 540.469 264.946 539.877 265.011 537.937C265.054 536.526 265.033 536.095 264.839 535.179C264.397 533.013 263.535 530.998 262.231 529.08C261.38 527.83 259.247 525.665 258.126 524.911C255.206 522.971 251.758 522.044 246.92 521.915C243.526 521.818 240.348 522.109 234.766 523.025C230.693 523.682 228.398 524.027 226.847 524.189C220.328 524.889 214.51 524.102 210.038 521.937C208.271 521.085 206.978 520.17 205.663 518.855C204.704 517.896 203.315 516.043 203.508 515.978C203.552 515.967 204.554 516.129 205.739 516.334C211.708 517.4 218.076 518.133 225.015 518.564C228.495 518.78 239.766 518.747 243.332 518.51C248.321 518.176 252.814 517.713 257.124 517.088C259.958 516.668 260.777 516.366 261.628 515.418C263.373 513.478 262.414 510.44 258.632 505.861C255.465 502.046 253.407 498.232 251.564 492.823C250.045 488.319 249.183 484.57 247.48 475.012C246.306 468.44 245.659 465.25 244.841 462.029C242.858 454.239 240.434 448.991 236.587 444.186C235.456 442.763 234.906 441.891 234.454 440.727C233.98 439.563 233.172 436.568 233.042 435.534C232.644 432.312 233.376 426.073 234.529 422.905C235.079 421.397 236.932 418.38 240.014 413.941C244.711 407.196 246.166 404.933 247.556 402.186C249.668 398.026 250.54 394.622 250.53 390.592C250.519 387.543 250.034 385.097 248.881 382.381C247.286 378.599 245.142 375.669 239.076 368.935C233.118 362.33 231.609 360.261 229.131 355.358C228.56 354.227 227.612 352.524 227.008 351.555C226.416 350.585 225.457 348.936 224.896 347.891C224.325 346.846 223.603 345.596 223.291 345.122C220.867 341.47 217.117 338.194 211.924 335.209C210.243 334.24 206.288 332.268 204.133 331.309C203.315 330.953 202.636 330.63 202.625 330.609C202.614 330.576 203.433 329.887 204.435 329.079C209.79 324.758 212.57 322.075 212.57 321.234C212.57 321.127 212.452 320.976 212.301 320.911C211.816 320.696 210.318 321.094 204.704 322.98C196.257 325.814 194.404 326.202 191.344 325.781C190.266 325.631 185.644 323.982 185.213 323.594C184.48 322.915 184.254 321.601 184.674 320.362C185.181 318.842 186.7 316.235 188.036 314.576C188.402 314.134 190.148 312.291 191.926 310.492C193.714 308.693 195.115 307.195 195.039 307.173C194.878 307.119 194.102 307.507 191.074 309.188C182.465 313.951 177.283 316.246 172.865 317.226C171.658 317.496 169.665 317.549 168.824 317.334C167.402 316.968 166.713 316.3 166.141 314.727C165.657 313.38 165.463 312.421 165.473 311.235C165.473 310.061 165.657 309.253 166.174 308.165C166.702 307.044 167.305 306.29 169.676 303.822C172.111 301.28 172.703 300.601 172.703 300.331C172.703 299.814 172.003 300.17 168.189 302.637C159.429 308.315 156.056 310.158 154.462 310.158C153.718 310.158 153.61 309.964 153.621 308.617C153.632 306.473 154.408 303.909 155.992 300.838C156.38 300.084 156.552 299.491 156.38 299.491C156.164 299.491 153.75 300.342 153.115 300.644C151.93 301.204 150.335 302.314 148.298 304.016C144.807 306.915 142.674 308.111 140.982 308.132C140.066 308.143 139.646 307.928 138.569 306.904C138.052 306.408 137.394 305.827 137.093 305.611C135.369 304.372 131.662 302.82 127.762 301.7C125.844 301.15 121.986 300.245 121.566 300.245C121.448 300.245 121.825 300.461 122.396 300.708C125.542 302.131 128.236 304.437 130.1 307.303C130.617 308.111 131.328 309.415 131.328 309.576C131.328 309.673 129.604 309.522 128.624 309.339C127.094 309.048 125.887 308.553 124.465 307.637C122.331 306.268 120.456 305.385 116.965 304.113C115.672 303.65 114.519 303.208 114.401 303.154C114.024 302.95 114.185 303.208 114.821 303.812C115.651 304.62 116.211 305.061 118.237 306.495C119.185 307.163 120.327 308.014 120.769 308.369C121.631 309.081 122.848 310.266 122.784 310.341C122.751 310.363 121.663 310.33 120.359 310.276L117.978 310.169L115.36 308.822C111.33 306.753 109.315 306.02 106.783 305.686C105.501 305.514 104.046 305.482 103.701 305.622C103.486 305.708 103.885 305.902 106.061 306.818C106.654 307.066 107.742 307.583 108.486 307.96C110.037 308.757 111.826 310.029 111.589 310.169C111.513 310.223 111.061 310.266 110.587 310.266C108.776 310.266 104.456 310.654 101.482 311.085C95.6851 311.914 90.1253 313.39 85.0503 315.438C83.1755 316.192 78.6178 318.444 76.7537 319.532C66.9056 325.307 57.7039 333.669 46.7998 346.738C37.4149 357.987 28.418 370.658 20.7786 383.34C20.0352 384.579 19.3995 385.582 19.3564 385.582C19.2163 385.582 17.6647 383.373 17.0829 382.349C14.9495 378.621 13.9582 374.505 13.9582 369.473C13.969 364.915 14.7986 360.239 16.5549 354.927C18.2035 349.939 19.9921 346.006 23.9033 338.765C26.0691 334.757 29.0645 328.863 30.045 326.697C32.7925 320.577 34.3441 315.481 34.9583 310.535C35.1846 308.725 35.2169 304.921 35.0122 303.316C34.3657 298.09 32.9326 294.545 28.2133 286.507C23.2676 278.081 22.1578 275.021 22.147 269.806C22.1363 265.733 22.9121 262.318 25.498 254.883C26.8233 251.069 27.6422 248.591 28.2025 246.641C29.6679 241.523 32.0168 235.683 34.9583 229.778C38.083 223.529 41.3908 217.85 48.7931 206.02C53.6095 198.326 54.7408 196.57 61.6475 186.14C70.4289 172.887 73.4674 168.222 76.452 163.405C81.7101 154.925 83.3802 152.307 86.214 148.159C97.2366 132.029 109.261 118.033 122.493 105.911C126.77 102.01 129.927 99.3598 138.838 92.2592L145.432 87.0011L146.165 87.1842C147.232 87.4428 149.861 88.3587 153.276 89.6625C164.816 94.0478 165.592 94.3064 167.575 94.4681C168.587 94.5543 169.471 94.5542 170.753 94.4573C174.912 94.1771 178.058 93.3583 181.431 91.6882C183.92 90.4598 185.31 89.4685 188.014 87.0334C190.589 84.7169 193.316 83.3054 196.376 82.6912C198.003 82.3787 200.427 82.3033 202.496 82.5296C205.836 82.8744 207.409 82.939 210.889 82.8851C218.647 82.7558 221.287 81.8938 227.45 77.4654C231.394 74.6208 232.881 73.7265 234.874 73.0262C236.598 72.4228 237.341 72.3043 239.345 72.315C241.069 72.315 241.306 72.3474 243.321 72.7676C247.114 73.565 248.353 73.6942 252.167 73.705C255.96 73.705 256.919 73.5973 259.731 72.8969C263.309 71.9918 266.433 70.4187 269.515 67.9944C271.541 66.3997 273.178 65.1714 273.933 64.6865C276.465 63.0487 278.867 62.3807 281.227 62.6501C282.639 62.8117 283.619 63.0703 285.753 63.8353C289.664 65.2468 292.767 65.7532 296.883 65.6454C299.975 65.5592 302.033 65.2252 304.781 64.3309C307.539 63.4366 310.739 61.8743 313.304 60.1503C314.607 59.2776 315.157 59.0728 315.997 59.1267C316.935 59.2021 317.948 59.6331 319.898 60.786C322.01 62.0251 323.227 62.6393 325.005 63.3396C328.227 64.6111 331.179 65.4192 334.325 65.9148C335.661 66.1196 336.329 66.1518 338.905 66.1518C342.977 66.1626 344.378 65.9579 348.968 64.665C352.632 63.6306 353.526 63.4689 355.606 63.4797C357.523 63.4797 358.148 63.5982 359.484 64.2124C360.68 64.7727 361.812 65.7209 363.956 67.9513C366.068 70.1493 366.876 70.8604 368.568 71.9595C372.306 74.4161 376.412 76.0216 380.872 76.7866C381.896 76.959 382.855 77.0237 384.859 77.0668C388.027 77.1314 388.62 77.056 391.335 76.1832C395.526 74.8364 397.142 74.5885 398.64 75.0411C399.502 75.2997 399.739 75.5044 401.194 77.2176C404.793 81.4305 410.719 84.7599 416.796 85.9883C419.252 86.4839 420.631 86.624 423.325 86.624C425.415 86.6348 426.202 86.5917 427.883 86.3654C429.715 86.1284 429.995 86.1175 430.954 86.2361C434.596 86.6994 437.311 88.6604 442.504 94.6081C444.918 97.3557 446.868 99.3275 448.161 100.297C449.389 101.224 451.555 102.301 453.171 102.786C459.001 104.521 466.791 103.767 475.378 100.642C478.287 99.5861 480.205 99.2628 482.22 99.4999C485.647 99.8985 488.373 101.407 492.715 105.329C504.847 116.265 516.312 129.26 526.494 143.58C532.183 151.596 536.224 157.932 543.033 169.547C545.393 173.566 548.421 178.565 553.7 187.164C555.995 190.892 558.193 194.534 558.592 195.245C560.241 198.175 561.544 201.117 562.751 204.63C565.391 212.258 567.707 216.827 575.422 229.562C582.501 241.264 584.829 245.757 587.35 252.631C590.011 259.85 591.552 266.197 594.429 281.712C595.032 284.945 595.808 288.986 596.164 290.709C596.509 292.423 596.799 293.888 596.799 293.963C596.799 294.136 595.776 294.761 593.19 296.151C588.471 298.683 588.363 298.791 586.51 302.885C581.402 314.166 579.646 322.527 580.594 331.061C581.154 336.158 582.717 340.704 588.643 354.604C591.875 362.189 594.925 369.764 594.817 369.947C594.795 369.98 594.418 370.184 593.998 370.389L593.222 370.766L592.942 370.421C592.78 370.238 588.19 365.228 582.738 359.291L572.826 348.505L572.804 347.643C572.782 346.447 572.696 345.909 572.33 344.917C571.371 342.278 569.054 340.058 565.186 338.065C564.41 337.666 562.342 336.729 560.596 335.985C558.851 335.242 555.791 333.949 553.808 333.108C548.464 330.846 545.555 329.52 541.471 327.505C536.633 325.113 534.941 324.402 531.73 323.368C522.701 320.469 513.112 319.694 500.149 320.836C495.872 321.213 492.305 321.137 489.655 320.599C485.032 319.661 482.306 317.625 481.498 314.489C480.755 311.559 482.199 307.928 485.485 304.523C485.927 304.07 486.25 303.693 486.207 303.693C486.153 303.693 485.83 303.768 485.463 303.865C483.75 304.307 481.757 305.719 479.904 307.82C479.537 308.229 478.46 309.544 477.501 310.729C473.579 315.588 471.467 317.097 468.795 316.914C466.155 316.731 464.366 315.071 463.461 311.936C462.955 310.169 462.653 307.68 462.653 305.158C462.653 303.682 462.545 303.434 462.222 304.178C461.856 305.029 461.511 306.495 461.155 308.757C460.283 314.188 459.733 315.772 458.182 317.334C456.77 318.756 455.488 319.155 452.579 319.069C449.777 318.983 447.536 318.53 440.683 316.666C436.891 315.632 435.242 315.254 434.078 315.157L433.292 315.093L434.014 315.47C435.522 316.246 438.022 318.153 439.552 319.694C440.608 320.75 441.211 321.655 441.211 322.172C441.211 322.689 440.479 325.34 440.134 326.072C439.455 327.527 438.27 328.367 436.266 328.798C433.55 329.391 431.374 329.143 426.342 327.656C423.379 326.783 420.287 325.728 417.043 324.499C415.643 323.961 414.479 323.519 414.458 323.519C414.447 323.519 415.287 324.381 416.322 325.426C419.554 328.701 421.493 331.169 421.935 332.58C422.118 333.162 422.118 333.27 421.989 333.593C421.569 334.574 419.974 334.347 413.197 332.333C405.924 330.178 402.465 329.369 398.888 329.003C397.681 328.885 394.158 328.928 393.554 329.079C393.263 329.143 393.317 329.186 394.309 329.714C397.757 331.546 405.73 337.224 408.154 339.573C409.113 340.5 409.199 340.78 408.682 341.222C408.111 341.696 407.454 341.782 404.577 341.771C401.301 341.76 398.586 341.47 392.078 340.435C388.706 339.896 387.445 339.789 384.267 339.789C380.754 339.789 377.694 340.069 374.817 340.651C373.481 340.931 371.38 341.534 370.69 341.847L370.152 342.094L370.852 342.17C371.24 342.213 372.77 342.299 374.246 342.364C379.579 342.601 382.23 343.15 384.827 344.54C385.463 344.885 386.842 345.607 387.876 346.146C391.184 347.837 391.949 348.732 391.044 349.809C390.344 350.639 388.889 350.876 386.777 350.499C386.055 350.37 385.139 350.305 384.159 350.305C381.767 350.305 380.549 350.607 376.239 352.287C373.459 353.376 372.037 353.839 370.755 354.108C369.839 354.302 369.839 354.302 370.27 354.389C370.496 354.442 372.684 354.496 375.108 354.496C380 354.518 380.42 354.561 381.637 355.207C382.327 355.574 384.073 356.974 384.008 357.104C383.986 357.158 383.502 357.578 382.93 358.041C381.508 359.216 379.396 361.371 378.254 362.793C373.923 368.213 371.725 374.031 371.261 381.304L371.132 383.265L370.529 383.965C370.195 384.353 367.598 387.327 364.753 390.592C356.263 400.322 351.597 405.849 350.563 407.379C347.568 411.818 347.018 416.764 348.548 425.621C348.904 427.722 349.205 428.605 349.895 429.661C350.951 431.234 352.179 432.021 355.498 433.217C355.961 433.389 356.166 433.648 359.452 438.292C361.445 441.115 362.34 442.192 365.184 445.263C368.729 449.067 369.462 449.972 370.13 451.394C370.453 452.062 370.475 452.202 370.475 453.247C370.475 454.519 370.356 454.961 369.613 456.534C368.697 458.43 364.969 464.345 362.771 467.362C359.722 471.564 358.31 473.913 357.664 475.874C357.513 476.316 357.254 477.555 357.071 478.622C356.543 481.801 356.047 484.009 354.42 490.474C352.19 499.353 351.673 501.906 351.242 506.421C350.617 512.94 349.863 516.064 348.106 519.512C347.201 521.279 346.285 522.572 344.842 524.146C343.225 525.923 342.514 526.818 341.717 528.164C340.661 529.91 339.293 532.765 339.055 533.724C338.905 534.338 338.312 538.605 338.312 539.079C338.312 539.209 344.238 539.036 346.124 538.853C353.979 538.11 360.4 536.644 375.377 532.194C385.279 529.242 389.708 528.078 394.88 527.055C395.731 526.882 396.453 526.764 396.474 526.785C396.55 526.861 396.151 527.96 395.763 528.725C394.427 531.408 392.412 533.056 389.115 534.155C387.768 534.597 378.146 537.161 372.253 538.627C364.355 540.599 359.269 541.687 353.235 542.678C348.613 543.432 347.535 543.745 344.992 545.059C340.898 547.171 338.053 550.662 336.954 554.908C336.663 556.007 336.642 556.233 336.653 558.032C336.653 560.166 336.771 560.812 337.45 562.428C338.635 565.284 341.426 567.643 344.486 568.376C345.585 568.645 348.677 568.775 351.834 568.699C355.272 568.613 355.821 568.548 357.383 568.042C358.041 567.837 358.612 567.686 358.666 567.719C358.784 567.794 359.172 569.249 359.312 570.154C359.377 570.542 359.495 571.77 359.592 572.901C359.808 575.606 359.915 576.36 360.293 577.879C360.928 580.498 361.93 582.868 363.213 584.808C364.053 586.079 365.949 587.997 367.135 588.784C368.999 590.001 369.893 590.346 375.313 591.865C383.62 594.192 389.643 595.55 394.88 596.272C398.241 596.746 398.457 596.778 399.459 597.112C401.635 597.813 403.909 599.117 408.65 602.349C412.303 604.849 413.596 605.678 415.406 606.659C418.875 608.555 421.526 609.213 424.661 608.943C432.43 608.286 442.978 603.082 458.236 592.404C463.558 588.676 465.282 587.135 471.833 580.261C477.005 574.83 478.665 573.268 482.35 570.337C483.362 569.529 484.785 568.354 485.517 567.719C487.349 566.124 491.239 562.213 494.116 559.056C499.912 552.72 503.21 549.865 508.963 546.191C512.605 543.853 513.769 542.689 514.76 540.362C517.357 534.285 521.02 528.962 525.912 524.199C529.586 520.622 533.702 517.541 539.003 514.384C542.042 512.573 542.818 512.002 546.201 509.018C559.68 497.144 568.289 486.768 574.226 475.282C576.543 470.799 578.202 466.651 579.786 461.382C580.939 457.557 581.941 455.909 585.486 452.062C591.886 445.102 597.101 437.527 601.368 429.004C603.523 424.694 604.74 421.828 606.658 416.602C609.514 408.812 609.718 408.015 609.783 404.437C609.826 402.056 609.934 401.367 610.591 399.319C612.531 393.242 612.897 387.715 611.776 381.509C611.378 379.3 610.85 377.511 608.673 371.036C606.346 364.107 606.195 363.698 601.293 350.833C597.327 340.435 596.056 337.052 595.442 335.231C594.278 331.805 594.386 330.361 595.959 328.723C596.713 327.947 599.601 325.954 599.752 326.115C599.773 326.137 600.775 328.238 601.971 330.792C603.167 333.335 604.159 335.436 604.18 335.457C604.202 335.479 604.934 335.005 605.807 334.412C611.238 330.77 613.813 327.581 614.696 323.411C615.03 321.827 615.041 318.745 614.707 316.569C614.168 313.067 608.425 288.468 604.288 271.897C602.262 263.805 602.133 262.954 602.133 257.631C602.133 252.631 602.349 250.67 603.911 241.339C605.355 232.709 605.667 230.284 605.839 226.19C606.249 216.665 603.825 205.696 598.2 191.635C596.175 186.56 590.518 173.49 588.988 170.333C586.682 165.571 583.773 160.615 578.644 152.684C555.5 116.912 530.901 88.5204 503.533 66.0334C456.468 27.3518 400.03 6.22242 329.584 0.931995C321.277 0.307056 315.836 0.0484866 309.759 0.0161622C306.828 -0.0053874 303.994 -0.0053874 303.456 0.0161622ZM321.234 19.8741C328.227 20.1866 332.774 20.4667 337.989 20.9085C375.216 24.0655 410.826 32.8577 445.144 47.3714C447.816 48.5027 448.096 48.6428 448.603 49.1492C449.292 49.8173 449.519 50.5607 449.303 51.4012C449.012 52.5541 448.258 53.5238 447.256 54.0087C446.75 54.2673 446.523 54.3104 445.791 54.3104C444.95 54.2996 444.875 54.2781 442.72 53.3514C393.07 32.0066 336.771 22.9018 281.098 27.2225C242.826 30.1856 205.049 39.5489 171.303 54.4289C168.727 55.5602 168.641 55.5926 167.855 55.5926C167.208 55.6034 166.928 55.5494 166.454 55.3232C164.321 54.3103 163.599 51.6166 165.107 50.2806C165.581 49.8604 165.71 49.8065 170.71 47.6623C202.819 33.8706 236.63 25.143 272.047 21.5011C281.022 20.5852 289.287 20.0573 300.061 19.7341C302.475 19.6586 318.885 19.7664 321.234 19.8741ZM38.4816 167.327C38.9988 167.543 39.1497 167.758 39.947 169.504C42.339 174.73 44.3108 180.882 45.3991 186.506C45.7115 188.08 45.7008 188.284 45.3344 189.545C45.1405 190.17 44.4186 190.665 43.6751 190.665C42.6084 190.665 41.8649 189.868 41.8757 188.726C41.8757 187.595 40.7444 182.692 39.6884 179.298C38.9773 177.025 37.9214 174.245 36.9193 171.971C36.4452 170.904 36.0034 169.859 35.9388 169.655C35.7017 168.836 36.2082 167.834 37.0594 167.413C37.6089 167.144 37.9968 167.112 38.4816 167.327ZM30.5729 178.986C31.1009 179.298 31.2733 179.643 32.1245 181.949C34.2364 187.681 36.7792 195.751 38.1692 201.16C38.4816 202.345 38.4385 202.766 37.9968 203.326C37.3072 204.209 35.6155 204.242 35.0014 203.38C34.8936 203.218 34.4519 201.839 34.0317 200.298C32.4154 194.447 30.476 188.36 28.5904 183.231C27.7823 181.054 27.6637 180.623 27.7068 180.182C27.7607 179.589 28.0516 179.212 28.6981 178.899C29.2153 178.652 30.0773 178.695 30.5729 178.986ZM591.067 190.31C591.649 190.622 592.08 191.29 592.145 191.98C592.188 192.497 592.134 192.691 591.628 193.79C590.712 195.827 588.611 199.867 587.479 201.764C585.378 205.298 582.997 208.702 580.422 211.892C578.471 214.295 578.051 214.596 577.125 214.208C576.079 213.777 575.519 212.603 575.896 211.622C575.961 211.461 576.414 210.847 576.92 210.243C581.445 204.791 585.507 198.283 588.341 191.958C588.837 190.838 589.214 190.299 589.634 190.116C589.936 189.987 590.593 190.073 591.067 190.31ZM25.3148 191.7C25.929 192.012 26.1445 192.443 27.0173 195.169C29.1291 201.699 31.0794 208.681 32.6309 215.34C32.9218 216.59 32.9542 216.848 32.8464 217.204C32.4909 218.421 30.8746 219.079 29.948 218.389C29.42 217.99 29.2907 217.635 28.6443 214.909C27.125 208.519 25.164 201.559 23.1814 195.579C22.5996 193.833 22.4918 193.359 22.5349 192.96C22.6642 191.808 24.1727 191.118 25.3148 191.7ZM596.379 200.621C596.875 200.955 597.241 201.548 597.306 202.119C597.349 202.518 597.263 202.776 596.498 204.296C593.772 209.726 589.462 216.256 585.27 221.298C584.107 222.699 583.665 222.893 582.706 222.44C582.156 222.171 581.661 221.481 581.553 220.835C581.445 220.231 581.736 219.693 582.954 218.195C586.768 213.53 590.712 207.453 593.384 202.13C593.987 200.934 594.267 200.578 594.752 200.374C595.151 200.201 595.927 200.33 596.379 200.621ZM600.366 212.786C600.915 213.088 601.249 213.583 601.249 214.133C601.249 214.639 600.377 216.784 599.224 219.165C597.694 222.29 596.131 224.854 594.041 227.623C592.813 229.261 590.96 231.437 590.539 231.739C589.483 232.515 587.889 231.61 587.77 230.166C587.716 229.433 587.813 229.25 589.052 227.839C592.339 224.067 595.323 219.197 597.187 214.585C597.705 213.293 597.877 213.045 598.437 212.765C599.051 212.463 599.763 212.474 600.366 212.786ZM20.1753 287.423C20.6278 287.596 20.9618 287.854 21.7376 288.641C23.3215 290.257 24.2481 291.496 25.1748 293.252C26.1122 295.009 26.7048 297.067 26.7048 298.554C26.7048 299.178 26.694 299.222 26.2307 299.663C25.6381 300.234 24.7545 300.568 23.6663 300.644C22.244 300.752 21.2851 300.353 20.7679 299.459C20.5201 299.017 20.5093 298.909 20.4446 296.097C20.3692 292.897 20.2938 292.466 19.6904 291.636C19.4426 291.281 19.1732 291.087 18.5375 290.796C18.0849 290.591 17.5462 290.3 17.3523 290.16C16.4687 289.481 16.4795 288.49 17.3846 287.8C18.1604 287.208 19.2055 287.068 20.1753 287.423ZM598.028 301.98C599.041 302.26 599.806 303.467 599.666 304.598C599.536 305.74 598.965 306.559 595.894 310.05C592.554 313.843 591.52 315.707 591.52 317.894C591.52 318.616 591.584 319.004 591.789 319.586C592.102 320.459 592.134 320.954 591.886 321.191C591.369 321.709 589.968 320.965 589.214 319.769C588.686 318.918 588.578 318.336 588.643 316.688C588.675 315.847 588.783 314.802 588.88 314.36C589.677 310.729 591.628 307.313 595.194 303.262C596.282 302.012 597.004 301.689 598.028 301.98ZM144.096 345.489C143.967 345.596 133.612 353.063 133.214 353.322L132.944 353.494L133.224 352.869C135.164 348.462 136.381 347.514 142.211 345.876C143.935 345.392 144.269 345.316 144.096 345.489ZM193.553 350.132C195.083 352.589 196.429 354.701 196.537 354.83C196.645 354.949 196.979 355.164 197.281 355.304C197.572 355.444 197.798 355.617 197.766 355.681C197.744 355.746 197.087 358.052 196.3 360.81C195.524 363.558 194.813 366.068 194.727 366.37L194.565 366.941H193.951C193.078 366.941 192.852 366.855 192.852 366.553C192.852 366.068 192.292 363.289 191.613 360.369C190.385 355.132 190.115 353.279 190.126 350.294C190.126 347.945 190.449 345.295 190.686 345.564C190.74 345.618 192.023 347.676 193.553 350.132ZM147.824 353.354C147.436 355.541 147.081 357.362 147.038 357.405C146.952 357.492 132.686 361.327 132.632 361.284C132.567 361.209 133.817 359.043 134.593 357.89C135.573 356.457 137.674 354.324 139.043 353.397C140.379 352.492 141.974 351.663 143.773 350.941C145.12 350.402 148.115 349.389 148.417 349.378C148.482 349.378 148.245 350.941 147.824 353.354ZM169.449 354.626C172.736 361.478 173.436 366.446 171.884 372.07C171.529 373.374 170.57 375.992 170.441 375.992C170.408 375.992 169.805 373.126 169.094 369.624C168.383 366.122 167.768 363.213 167.736 363.159C167.661 363.019 166.411 363.482 165.484 364C163.846 364.894 162.155 366.381 160.118 368.719C158.082 371.046 157.231 371.951 156.304 372.716C155.356 373.503 153.891 374.451 153.783 374.343C153.75 374.311 153.826 374.085 153.955 373.837C154.418 372.921 155.162 370.863 156.11 367.825C156.638 366.122 157.263 364.204 157.511 363.547C158.599 360.627 159.838 358.569 161.541 356.867C163.189 355.229 164.816 354.248 167.208 353.462C167.887 353.236 168.501 353.042 168.566 353.042C168.63 353.042 169.029 353.753 169.449 354.626ZM465.778 353.677C466.812 354.001 467.75 354.604 468.73 355.574C469.635 356.468 471.553 358.731 471.467 358.806C471.413 358.871 460.294 353.764 460.283 353.677C460.283 353.548 462.686 353.386 463.892 353.419C464.679 353.451 465.315 353.537 465.778 353.677ZM457.794 357.847C465.541 359.129 470.066 362.103 473.008 367.846C473.557 368.902 473.557 368.924 473.256 368.719C473.083 368.611 471.898 367.825 470.627 366.973L468.31 365.433H462.416C459.162 365.433 456.512 365.4 456.512 365.346C456.512 365.303 456.221 363.547 455.865 361.446C455.509 359.345 455.219 357.589 455.219 357.546C455.219 357.449 455.757 357.513 457.794 357.847ZM410.826 362.383C411.171 363.967 411.29 365.864 411.15 367.469C410.988 369.409 410.729 370.799 409.846 374.376C408.984 377.856 408.725 379.289 408.607 381.045L408.531 382.284L407.799 381.509C405.59 379.192 404.502 376.983 404.394 374.537C404.243 371.413 405.385 368.73 409.587 362.373C410.245 361.381 410.449 361.134 410.525 361.274C410.579 361.371 410.708 361.866 410.826 362.383ZM435.932 365.433C439.089 365.821 442.019 367.361 444.099 369.732C446.071 371.962 447.59 374.807 448.894 378.686C449.519 380.517 450.51 384.213 450.456 384.472C450.435 384.547 447.234 381.961 443.097 378.535C439.067 375.205 435.759 372.479 435.738 372.49C435.727 372.501 435.037 375.852 434.208 379.936C433.378 384.019 432.688 387.403 432.667 387.456C432.624 387.586 431.665 385.614 431.245 384.515C429.553 380.119 429.499 376.089 431.072 371.359C431.654 369.624 432.333 367.986 433.141 366.381L433.669 365.325H434.348C434.714 365.325 435.436 365.379 435.932 365.433ZM527.582 369.43C537.247 369.99 546.384 373.223 553.108 378.438C555.78 380.517 558.807 383.793 560.822 386.81C562.697 389.601 563.656 392.111 563.947 394.988C564.281 398.307 563.161 402.66 560.747 407.465C560.424 408.112 560.165 408.758 560.165 408.898C560.165 409.049 560.618 410.439 561.178 412.001C562.622 416.042 562.686 416.301 562.611 417.712C562.449 420.449 561.35 423.918 559.788 426.655C557.816 430.081 555.176 433.238 549.714 438.712C544.768 443.669 541.46 446.373 537.323 448.851C531.655 452.256 525.686 453.915 521.096 453.366C517.443 452.924 513.672 451.34 510.87 449.045C509.718 448.108 508.037 446.298 507.304 445.22C506.571 444.143 506.119 443.356 506.194 443.302C506.28 443.216 514.211 440.124 514.243 440.156C514.264 440.177 514.178 441.611 514.06 443.345C513.93 445.091 513.833 446.729 513.833 446.976V447.45L514.297 447.375C516.387 447.041 521.559 446.05 523.531 445.608C537.139 442.569 545.458 437.678 550.414 429.812C551.19 428.584 552.493 425.922 552.989 424.576C554.261 421.106 554.81 417.992 554.81 414.189C554.81 409.125 553.7 404.825 551.308 400.634C548.399 395.538 544.154 391.572 538.777 388.922C536.17 387.629 533.228 386.659 531.105 386.379C530.481 386.303 530.33 386.12 530.89 386.12C531.806 386.12 534.273 386.368 535.437 386.562C540.135 387.392 545.414 389.762 550.953 393.533C552.946 394.891 553.959 395.656 555.263 396.787C557.935 399.104 559.109 399.74 560.003 399.309C560.661 398.996 561.135 397.628 561.135 396.022C561.135 394.611 560.338 392.639 559.045 390.829C557.299 388.394 553.786 384.666 551.491 382.834C547.645 379.752 543.216 377.533 538.659 376.391C535.717 375.647 533.077 375.345 529.662 375.345C526.192 375.345 523.1 375.701 518.898 376.595C508.306 378.847 502.337 381.832 500.505 385.776C499.589 387.737 499.611 389.956 500.537 391.734C501.141 392.887 502.261 393.986 504.675 395.818C506 396.82 507.142 397.789 507.703 398.382C509.287 400.052 510.741 402.283 512.562 405.892C513.866 408.478 514.383 409.286 515.439 410.396C517.087 412.12 518.995 413.23 521.344 413.822C523.24 414.296 524.544 414.113 527.517 412.95C529.381 412.217 531.892 411.463 532.797 411.376C533.993 411.247 534.683 411.635 537.053 413.736C539.165 415.6 539.337 415.988 538.95 417.831C538.249 421.149 536.859 423.897 534.855 425.89C533.401 427.345 531.978 428.239 530.017 428.939C527.711 429.758 525.923 430.017 522.507 430.028C519.447 430.028 518.574 429.952 518.574 429.672C518.574 429.564 519.016 427.786 519.555 425.718C520.104 423.638 520.568 421.85 520.589 421.72C520.708 421.203 513.92 414.049 511.409 412.044C508.802 409.976 505.688 408.166 503.188 407.282C502.498 407.034 502.542 407.002 502.089 408.392C501.647 409.76 501.496 411.193 501.658 412.54C501.852 414.275 502.218 415.417 503.522 418.38C504.47 420.557 504.934 421.763 505.16 422.636C505.311 423.218 505.321 423.444 505.214 424.091C505.041 425.114 504.837 425.545 503.996 426.687C502.671 428.476 501.507 431.073 501.076 433.206C500.494 436.115 500.602 439.542 501.399 443.528C501.55 444.283 502.014 446.298 502.423 448.022C503.296 451.696 503.544 452.278 504.998 454.195C506.69 456.437 507.056 456.825 508.241 457.633C508.856 458.053 509.847 458.796 510.439 459.292C511.829 460.445 514.879 463.494 515.816 464.669C518.187 467.642 519.663 470.67 520.32 473.956C520.525 474.991 520.568 475.508 520.557 477.383C520.557 480.389 520.395 481.262 518.833 486.811C516.732 494.256 514.9 498.566 512.099 502.714C510.978 504.363 510.914 504.417 510.978 503.609C511.01 503.253 511.14 501.788 511.258 500.333C511.377 498.879 511.646 495.991 511.851 493.922C512.271 489.828 512.271 489.246 511.948 486.057C511.776 484.44 511.398 481.639 511.28 481.176C511.248 481.046 511.183 480.939 511.14 480.939C511.086 480.939 509.265 483.697 507.078 487.069C504.901 490.442 503.113 493.2 503.102 493.189C503.091 493.179 503.22 492.758 503.393 492.252C503.975 490.496 504.481 487.522 504.847 483.632C505.02 481.736 505.181 474.334 505.063 473.687L504.987 473.299L504.535 473.461C503.878 473.698 502.488 474.463 500.958 475.443C500.225 475.917 499.6 476.305 499.578 476.305C499.557 476.305 499.503 475.982 499.471 475.573C499.428 475.174 499.158 472.351 498.857 469.302C497.553 455.887 497.24 451.286 496.755 439.025C496.163 424.101 496.077 422.97 494.557 412.572C493.62 406.14 493.318 403.252 493.189 399.535C493.038 394.945 493.674 390.301 494.924 386.918C497.122 380.981 501.82 376.024 508.123 372.986C513.747 370.271 520.611 369.01 527.582 369.43ZM91.8384 372.813C97.3767 373.568 102.29 375.572 106.708 378.901C108.593 380.323 109.617 381.293 110.587 382.575C112.364 384.946 113.291 387.64 113.56 391.238C113.701 393.038 113.765 391.669 112.041 422.216C110.199 454.777 109.746 463.71 109.735 467.578C109.725 471.015 109.778 471.661 110.436 477.534C110.673 479.656 110.856 481.413 110.834 481.423C110.813 481.445 109.886 480.346 108.766 478.988C107.645 477.631 106.697 476.521 106.654 476.521C106.514 476.521 105.684 478.223 105.372 479.161C104.854 480.712 104.682 482.005 104.693 484.279C104.693 486.638 104.887 488.265 105.684 492.608C105.986 494.256 106.223 495.646 106.201 495.7C106.169 495.797 103.852 492.618 102.365 490.42C100.889 488.244 100.07 487.35 98.9606 486.714C98.0663 486.197 98.0771 486.186 97.9154 487.371C97.7323 488.653 97.7323 491.918 97.9154 493.707C97.9909 494.418 98.2171 496.26 98.4219 497.801C98.6266 499.342 98.8636 501.346 98.9498 502.262C99.1114 503.975 99.1545 507.175 99.0252 507.919L98.9498 508.35L98.2064 507.498C93.8102 502.456 91.0411 495.14 90.1037 486.057C89.9852 484.936 89.9205 483.341 89.9205 481.477C89.9098 478.934 89.9421 478.503 90.1468 477.523C90.8579 474.215 92.8405 470.498 95.7066 467.093C96.0083 466.737 97.0535 465.617 98.034 464.615C99.0145 463.602 100.21 462.298 100.685 461.706C104.186 457.299 106.115 452.191 107.02 444.897C107.57 440.544 107.699 437.064 107.376 435.447C107.096 434.025 106.848 433.314 105.63 430.243C104.423 427.215 104.046 425.987 103.852 424.328C103.626 422.421 103.82 421.149 104.887 417.594C106.223 413.154 106.471 411.872 106.481 409.577C106.481 408.661 106.438 407.95 106.374 407.885C106.223 407.735 103.755 408.974 102.398 409.879C98.6697 412.368 95.3187 415.934 90.8148 422.216C89.0693 424.64 88.7676 425.233 88.7676 426.203C88.7676 426.59 89.0801 428.702 89.4572 430.89C89.8343 433.088 90.136 434.887 90.1253 434.898C90.1037 434.919 78.3807 434.37 75.6655 434.219L74.351 434.144L72.2822 428.562C70.4613 423.66 70.2242 422.949 70.3535 422.798C70.6229 422.464 72.3899 421.16 73.2842 420.61C75.2991 419.393 77.077 418.897 80.6327 418.552C84.1345 418.208 85.7399 418.014 86.4941 417.841C89.3171 417.195 91.8492 415.223 93.724 412.206C94.4028 411.107 95.4157 409.103 96.31 407.077C97.8185 403.651 99.7902 400.656 102.883 397.046C105.264 394.277 106.158 392.855 106.675 390.969C106.869 390.236 106.837 387.941 106.611 387.036C106.137 385.097 105.07 383.782 103.292 382.942C101.676 382.188 96.4716 380.701 93.5085 380.151C90.5993 379.612 89.1663 379.494 85.5891 379.494C82.0226 379.494 80.8374 379.591 77.9821 380.151C68.5757 381.972 60.0959 387.618 54.8162 395.602C53.297 397.897 51.8532 400.731 51.0666 402.983C50.8511 403.576 50.6033 404.696 50.3986 405.946C50.0107 408.37 49.7952 409.318 49.5474 409.846L49.3534 410.256L49.9568 409.782C50.3016 409.523 55.1503 405.763 60.7532 401.431C66.356 397.089 71.4741 393.189 72.1206 392.758C74.9974 390.84 77.5295 390.01 79.566 390.312C80.0293 390.376 80.4495 390.473 80.4926 390.516C80.5357 390.56 80.1262 390.764 79.5767 390.958C74.6419 392.736 69.8148 395.764 65.9897 399.481C58.6305 406.636 55.1287 415.439 55.9153 424.77C56.2385 428.638 57.1975 432.118 58.8891 435.555C61.3134 440.501 64.8368 444.207 69.5669 446.826C73.629 449.077 78.4993 450.414 84.8348 451.006C86.4295 451.157 95.3618 451.211 95.5019 451.071C95.545 451.028 95.4157 449.53 95.211 447.731C95.0062 445.931 94.8554 444.444 94.8769 444.412C94.92 444.369 99.7256 444.789 100.555 444.918L100.965 444.983L100.889 445.694C100.437 450.252 97.2797 454.433 92.4849 456.803C89.4357 458.322 87.0329 458.829 83.391 458.71C78.7686 458.57 74.0277 457.159 68.3494 454.228C56.4001 448.054 50.0322 440.705 48.847 431.719C48.4483 428.702 48.7931 426.03 49.9891 422.949C50.2908 422.162 50.5925 421.225 50.6464 420.869C50.8403 419.716 50.4848 418.649 49.2995 416.818C46.5089 412.497 45.8624 407.573 47.3493 402.067C48.3837 398.242 50.7972 394.061 54.3529 389.891C55.7536 388.243 59.3093 384.709 60.8825 383.394C67.6383 377.727 74.7496 374.257 82.1304 373.029C83.0247 372.878 84.2422 372.716 84.8348 372.663C86.3541 372.522 90.2977 372.609 91.8384 372.813ZM215.264 375.776C220.608 376.186 224.261 377.77 227.666 381.164C229.821 383.308 231.264 385.614 232.169 388.361C232.493 389.331 232.934 391.271 232.934 391.712C232.934 391.842 232.967 391.939 233.021 391.939C233.064 391.939 234.357 391.475 235.898 390.915C237.428 390.355 238.742 389.891 238.807 389.891C238.871 389.891 239.033 390.312 239.162 390.829C239.292 391.357 239.755 393.167 240.186 394.859L240.983 397.94H238.71C236.048 397.929 235.219 398.059 233.818 398.727C232.784 399.222 231.825 400.106 231.232 401.108C230.952 401.593 228.991 406.194 224.304 417.443C223.938 418.305 223.744 418.434 223.259 418.186C222.731 417.917 222.537 417.356 222.537 416.182C222.548 415.212 222.58 415.083 223.119 413.65C223.442 412.82 224.153 411.053 224.713 409.717C228.118 401.625 228.84 399.029 228.84 394.977C228.84 392.51 228.441 390.398 227.612 388.491C227.019 387.112 225.823 385.431 224.961 384.73L224.541 384.396L224.422 384.989C224.196 386.077 223.614 387.047 222.548 388.124C220.554 390.129 218.744 390.85 213.486 391.734C209.392 392.424 208.163 392.779 205.879 393.954C203.25 395.3 200.772 397.52 199.155 399.977C198.692 400.677 197.916 401.862 197.421 402.606C196.343 404.243 195.309 405.299 193.606 406.506C191.204 408.209 190.396 408.866 189.329 409.965C187.045 412.335 185.482 415.32 184.75 418.693C184.556 419.619 184.513 420.136 184.502 421.947C184.502 424.435 184.62 425.136 185.331 426.623C185.892 427.808 187.012 428.939 188.812 430.146C193.887 433.562 199.339 435.868 205.243 437.096C205.868 437.225 206.396 437.344 206.407 437.365C206.439 437.387 188.338 457.159 186.29 459.335C185.892 459.745 183.823 461.932 181.69 464.184C179.545 466.436 177.229 468.903 176.528 469.679C173.759 472.739 170.979 476.23 169.794 478.137C168.404 480.367 167.176 483.341 166.659 485.787C166.454 486.735 166.411 487.253 166.411 489.02C166.4 490.851 166.432 491.239 166.648 492.08C167.122 493.944 168.189 495.894 169.352 497.036L169.891 497.564L170.01 497.252C170.257 496.594 170.872 494.062 171.195 492.36C172.509 485.389 172.8 484.117 173.619 481.994C174.136 480.669 174.578 480.012 175.817 478.784C178.985 475.637 184.319 472.179 187.745 471.036C189.458 470.465 188.758 469.636 193.219 477.512C195.352 481.294 197.108 484.376 197.119 484.354C197.13 484.343 197.076 483.999 196.99 483.6C196.332 480.432 196.246 475.508 196.796 471.198C197.647 464.442 200.028 458.559 203.261 455.187C205.469 452.892 207.29 451.89 210.523 451.189C212.516 450.758 213.518 450.273 214.563 449.228C216.244 447.547 216.815 446.05 218.281 439.563C218.529 438.464 218.884 437.031 219.078 436.385C219.477 435.016 220.123 433.314 220.242 433.314C220.285 433.314 220.328 433.476 220.328 433.659C220.328 434.639 221.093 437.236 221.912 439.057C223.269 442.106 224.929 444.531 229.648 450.392C233.883 455.65 235.305 457.687 236.641 460.359C237.837 462.761 238.419 464.722 238.656 467.082C238.774 468.3 238.731 469.065 238.408 471.403C238.279 472.308 238.182 473.569 238.182 474.258C238.193 476.208 238.58 477.135 240.186 479.15C241.63 480.949 242.136 481.844 242.578 483.384C243.041 484.968 243.171 486.326 243.278 490.582C243.429 496.519 243.774 497.995 245.724 500.893C246.575 502.154 247.524 503.199 250.476 506.098C252.038 507.639 253.687 509.33 254.128 509.858C255.001 510.893 255.734 511.938 255.648 512.024C255.551 512.121 253.784 512.606 251.543 513.155C238.052 516.442 223.636 516.258 209.952 512.616C204.845 511.248 199.845 509.395 194.932 507.014C193.843 506.486 192.96 506.098 192.96 506.141C192.96 506.184 193.369 507.046 193.865 508.048C195.945 512.207 198.261 515.45 201.354 518.543C206.364 523.553 212.279 526.559 219.067 527.583C221.567 527.96 223 528.057 225.931 528.057C230.219 528.046 232.751 527.787 239.345 526.678C243.332 526.01 245.304 525.816 247.039 525.913C253.417 526.268 257.706 530.082 257.167 534.909C256.844 537.765 255.12 539.607 252.415 539.984C250.53 540.254 248.299 539.478 244.302 537.183C240.272 534.866 238.16 534.015 234.669 533.304C231.006 532.561 229.056 532.442 219.628 532.334C210.404 532.227 208.486 532.108 206.525 531.462C203.756 530.546 202.539 529.07 200.879 524.576C200.19 522.691 199.489 521.193 198.962 520.45C198.531 519.846 198.627 519.782 197.518 521.452C195.223 524.911 193.693 528.552 192.852 532.55C191.861 537.269 192.173 539.004 194.285 540.437C195.837 541.493 199.155 542.797 202.28 543.583C204.823 544.219 206.547 544.434 210.9 544.672C216.374 544.962 218.626 545.307 220.77 546.18C222.429 546.848 224.131 548.227 224.821 549.445L225.144 550.016L228.506 546.449C230.359 544.499 231.9 542.894 231.932 542.894C232.126 542.894 232.73 543.379 232.967 543.723C233.527 544.542 233.861 545.663 234.497 548.852C235.316 553.033 235.316 556.373 234.475 558.937C232.741 564.303 227.375 568.107 219.11 569.82C218.27 569.992 215.662 570.456 213.324 570.843C207.937 571.749 205.61 572.309 202.711 573.44C202.517 573.516 202.517 573.505 202.657 573.365C202.743 573.279 205.739 570.596 209.305 567.417C212.872 564.238 215.953 561.437 216.158 561.178C216.815 560.381 217.031 559.842 217.031 559.002C217.042 558.463 216.977 558.129 216.826 557.817C216.384 556.901 215.275 556.114 213.755 555.608C212.333 555.145 211.396 555.091 203.034 554.961C191.451 554.8 189.243 554.627 185.331 553.604C180.343 552.311 176.97 549.865 174.61 545.835C173.382 543.734 172.412 541.083 171.033 536.052C169.137 529.07 167.79 526.063 165.592 523.822C163.825 522.023 161.853 521.139 159.601 521.129C158.47 521.129 157.683 521.29 156.81 521.721L156.089 522.066L155.981 521.786C155.927 521.635 155.496 520.364 155.033 518.974C153.557 514.577 152.791 511.636 152.317 508.576C152.048 506.777 151.94 502.995 152.113 501.4C152.533 497.823 153.535 494.849 155.216 492.263C155.539 491.767 155.787 491.347 155.765 491.336C155.744 491.315 153.987 491.099 151.854 490.851C149.721 490.604 147.943 490.366 147.911 490.334C147.867 490.291 147.684 489.203 147.48 487.91C147.275 486.52 147.081 485.572 147.005 485.572C146.941 485.572 144.7 486.509 142.017 487.662L137.146 489.752V489.397C137.146 488.847 137.631 487.112 138.062 486.11C138.612 484.828 139.151 483.923 141.219 480.798C143.568 477.254 144.387 475.594 144.861 473.375C145.077 472.34 145.077 470.53 144.861 469.593C144.678 468.828 144.215 467.793 144.042 467.793C143.988 467.793 143.105 468.16 142.081 468.612C139.571 469.722 139.485 469.754 139.549 469.657C139.603 469.56 142.049 464.162 142.275 463.634L142.415 463.3L141.015 462.298L139.614 461.307L140.013 460.585C141.564 457.794 144.161 454.422 146.736 451.847C149.936 448.646 153.298 446.211 157.543 444.024C158.718 443.41 159.935 442.72 160.248 442.494C162.09 441.104 162.521 438.238 161.379 434.973C160.926 433.67 159.935 431.719 158.502 429.306C155.981 425.06 155.216 423.099 155.237 420.815C155.237 419.07 155.765 417.593 157.123 415.492C159.106 412.443 172.154 392.758 172.757 391.928C174.858 389.008 177.315 386.314 179.06 385.021C181.506 383.222 183.726 382.381 186.333 382.274C188.187 382.198 189.393 382.381 193.154 383.319C197.087 384.289 197.862 384.429 199.716 384.439C200.556 384.45 201.267 384.418 201.31 384.386C201.343 384.342 200.836 382.92 200.19 381.207C199.533 379.505 199.005 378.104 199.026 378.082C199.037 378.072 199.985 377.845 201.116 377.565C207.43 376.035 211.643 375.507 215.264 375.776ZM400.159 394.029C401.194 394.126 402.131 394.201 402.239 394.201C402.336 394.201 402.422 394.255 402.422 394.32C402.422 394.395 401.786 396.152 401.011 398.231C400.224 400.311 399.567 402.099 399.534 402.196C399.502 402.336 399.75 402.239 400.493 401.83C402.228 400.871 405.967 399.093 407.54 398.479C409.458 397.725 411.57 397.078 413.358 396.712C414.608 396.453 415.007 396.421 417.076 396.421C419.608 396.41 420.297 396.507 422.097 397.111C424.64 397.973 426.784 399.449 429.273 402.045C430.404 403.231 448.624 424.759 449.357 425.772C450.284 427.065 450.435 428.207 449.885 429.866C449.713 430.372 448.603 432.732 447.407 435.113C444.573 440.749 443.84 442.645 443.463 445.242C443.28 446.599 443.377 448.345 443.668 448.916C443.98 449.508 444.627 449.961 445.51 450.22C445.898 450.327 446.836 450.597 447.579 450.801C452.256 452.116 456.889 454.53 461.026 457.805C462.675 459.109 465.713 462.137 466.963 463.731C467.47 464.367 467.89 464.938 467.911 464.981C467.933 465.035 467.06 465.423 465.972 465.854C464.894 466.274 463.989 466.64 463.968 466.651C463.946 466.673 464.884 468.02 466.047 469.636C467.232 471.295 468.094 472.599 468.019 472.62C467.944 472.631 466.64 472.48 465.131 472.276C463.623 472.082 462.373 471.931 462.352 471.942C462.341 471.952 462.222 472.254 462.093 472.599C461.931 473.062 461.856 473.569 461.824 474.474C461.759 476.111 462.061 477.329 462.976 479.161C463.774 480.755 464.506 481.779 466.64 484.279C469.226 487.306 470.152 488.621 470.853 490.302C471.165 491.056 471.532 492.403 471.402 492.338C471.359 492.317 470.982 492.123 470.562 491.907C469.581 491.401 467.922 490.83 466.694 490.571C465.358 490.291 462.33 490.291 461.069 490.56C459.83 490.819 458.774 491.164 458.774 491.293C458.774 491.379 461.683 496.12 462.513 497.392C462.696 497.661 461.651 497.198 458.354 495.549C457.449 495.086 456.447 494.601 456.124 494.461L455.542 494.202L453.796 495.819C452.827 496.702 452.029 497.467 452.008 497.51C451.997 497.564 452.245 497.995 452.579 498.491C455.337 502.617 456.145 508.479 454.841 514.933C454.464 516.819 453.818 519.06 452.902 521.732C451.803 524.964 451.383 526.031 451.253 526.01C449.26 525.568 447.428 525.783 445.543 526.678C443.269 527.755 441.416 529.436 439.768 531.893C438.313 534.08 437.548 536.138 436.083 541.859C434.93 546.374 434.165 548.777 433.303 550.587C430.372 556.761 424.122 561.599 415.891 564.066C411.484 565.381 407.206 566.07 399.243 566.76C397.466 566.911 395.699 567.083 395.311 567.137C393.964 567.352 392.552 567.794 391.432 568.344C390.537 568.775 390.16 569.033 389.589 569.604C388.663 570.542 388.372 571.242 388.436 572.427C388.512 573.817 389.223 574.916 390.785 576.069C391.227 576.403 394.341 578.44 397.703 580.595C401.064 582.76 403.801 584.538 403.79 584.56C403.737 584.614 380.258 582.34 379.03 582.168C376.024 581.737 374.224 580.983 372.619 579.496C370.669 577.685 369.44 575.207 368.956 572.115C368.697 570.477 368.794 567.654 369.171 565.478C369.451 563.883 370.345 560.036 370.496 559.756C370.561 559.659 371.865 560.489 375.323 562.838C377.931 564.605 380.097 566.049 380.14 566.059C380.312 566.07 381.013 564.982 381.53 563.904C381.831 563.28 382.37 562.181 382.715 561.459C383.728 559.358 384.838 558.345 386.885 557.666C387.251 557.537 392.488 556.244 398.511 554.789C404.534 553.334 409.76 552.052 410.115 551.934C412.303 551.201 413.412 549.973 413.585 548.109C413.8 545.738 412.098 539.995 409.738 535.19C409.275 534.241 408.661 533.067 408.37 532.571L407.853 531.677L407.206 532.108C405.277 533.401 403.737 535.448 403.025 537.668C402.875 538.142 402.648 539.133 402.53 539.877C402.131 542.376 401.668 542.872 398.974 543.766C395.677 544.844 392.423 545.577 384.32 547.042C376.95 548.378 374.268 548.96 370.992 549.951C366.122 551.427 362.728 553.076 358.795 555.91C355.562 558.237 354.205 559.013 352.481 559.498C351.36 559.821 349.464 559.842 348.494 559.551C346.07 558.819 344.777 557.17 344.777 554.811C344.777 552.192 346.285 549.919 349.119 548.259C352.018 546.568 358.084 544.93 366.65 543.54C376.681 541.913 378.599 541.558 382.004 540.685C387.24 539.338 391.087 537.668 395.052 535.017C397.509 533.38 400.235 530.891 401.797 528.886C404.06 525.956 405.568 522.648 406.01 519.62C406.193 518.413 406.312 517.034 406.226 517.034C406.204 517.034 404.836 517.573 403.198 518.23C386.389 524.954 368.762 530.179 351.026 533.681C347.858 534.306 347.6 534.328 346.576 534.026C345.994 533.864 345.531 533.401 345.531 533.013C345.531 532.733 345.65 532.614 346.425 532.086C351.371 528.714 355.228 523.521 357.092 517.734C357.868 515.321 358.159 513.522 358.622 508.274C359.021 503.792 359.797 501.271 361.424 499.148C363.223 496.81 363.406 496.4 363.417 494.86C363.417 494.138 363.32 493.405 363.072 492.22C362.749 490.69 362.728 490.442 362.728 488.427C362.728 485.938 362.879 485.033 363.697 482.566C364.926 478.87 366.822 475.691 371.617 469.302C374.505 465.455 375.916 463.408 377.112 461.285C378.901 458.096 379.989 454.842 380.194 452.062C380.247 451.2 380.291 451.06 380.495 450.92C381.734 450.112 383.663 451.599 384.601 454.088C384.816 454.648 386.982 463.354 388.264 468.817C388.458 469.668 388.781 470.347 389.762 472.049C390.645 473.569 391.238 474.991 391.636 476.532C391.992 477.943 392.294 480.023 392.305 481.294C392.315 481.779 392.348 482.296 392.391 482.447C392.466 482.695 392.52 482.641 393.102 481.747C393.447 481.208 394.826 478.956 396.151 476.736C397.487 474.517 398.931 472.157 399.362 471.489C399.987 470.53 400.138 470.218 400.127 469.905C400.052 467.33 407.993 469.927 415.513 474.937C421.537 478.956 426.116 483.718 428.282 488.212C429.187 490.086 429.661 491.638 429.887 493.502C429.962 494.073 430.307 495.344 430.921 497.187C432.031 500.592 432.473 502.327 432.559 503.63C432.613 504.406 432.581 504.686 432.451 504.956C432.365 505.139 432.311 505.29 432.333 505.29C432.495 505.29 433.324 504.665 433.723 504.244C435.404 502.488 435.781 499.299 434.897 494.138C434.606 492.414 432.656 484.516 432.279 483.525C431.74 482.091 430.501 480.324 429.208 479.139C427.549 477.62 425.685 476.413 421.407 474.075C417.819 472.125 416.753 471.5 415.46 470.616C413.272 469.119 410.201 466.619 407.001 463.72C404.879 461.792 396.582 453.484 396.625 453.334C396.647 453.269 400.86 450.845 405.978 447.946C411.107 445.037 415.643 442.44 416.052 442.171C417.173 441.438 418.056 440.49 418.541 439.499C418.951 438.68 418.961 438.647 418.994 437.204C419.026 436.018 418.994 435.523 418.8 434.607C418.164 431.493 416.774 428.67 414.651 426.192C413.682 425.06 412.529 424.101 410.008 422.313C407.809 420.751 406.139 419.231 405.364 418.068C405.127 417.712 404.555 416.764 404.092 415.966C402.347 412.939 401.172 411.538 399.233 410.17C396.69 408.359 393.738 407.422 390.57 407.422C388.727 407.422 387.758 407.584 385.56 408.263C382.758 409.135 382.327 409.221 380.98 409.232C379.817 409.232 379.698 409.211 379.041 408.898C378.524 408.65 378.082 408.306 377.317 407.551C376.185 406.42 375.754 406.161 375 406.161C374.084 406.161 373.319 406.743 372.748 407.853C372.285 408.78 372.231 409.157 372.145 411.818C372.08 414.016 372.026 414.512 371.832 415.115C371.574 415.934 371.111 416.613 370.647 416.893C370.464 417.001 370.313 417.119 370.313 417.163C370.313 417.206 372.307 421.483 374.731 426.677C377.166 431.881 379.148 436.18 379.148 436.245C379.148 436.32 378.89 436.342 378.373 436.309C377.371 436.245 376.81 435.965 375.97 435.103C374.925 434.025 374.074 432.398 373.115 429.618C371.541 425.039 369.419 422.205 366.488 420.751C365.109 420.072 364.075 419.824 362.555 419.824C361.09 419.813 360.282 419.996 359.14 420.6C358.709 420.815 358.353 420.944 358.353 420.88C358.353 420.664 360.271 412.497 360.336 412.432C360.39 412.379 366.154 413.294 366.65 413.434C366.779 413.478 366.865 413.208 367.059 412.12C367.522 409.502 368.74 406.463 370.195 404.244C374.321 397.962 380.431 394.665 389.385 393.889C390.979 393.749 397.897 393.846 400.159 394.029ZM210.566 408.263C211.159 408.349 211.805 408.467 211.977 408.521C212.29 408.607 212.279 408.618 211.493 408.963C204.166 412.228 201.644 416.441 204.09 421.311C204.791 422.712 205.728 423.918 207.355 425.524L208.788 426.935L207.851 427.312C206.461 427.862 205.566 428.056 204.381 428.045C201.989 428.034 199.339 426.881 194.145 423.584C193.402 423.11 192.777 422.712 192.766 422.701C192.68 422.625 194.005 419.598 194.802 418.014C197.744 412.174 201.3 409.038 205.836 408.273C207.01 408.069 209.241 408.069 210.566 408.263ZM403.435 431.795C405.902 434.424 407.917 436.611 407.917 436.643C407.917 436.676 407.702 436.848 407.443 437.01C407.174 437.171 405.859 438.13 404.502 439.132C400.73 441.934 399.093 442.828 396.636 443.453C395.505 443.744 392.671 444.078 392.542 443.938C392.509 443.906 393.08 443.259 393.813 442.494C394.546 441.74 395.462 440.684 395.828 440.156C396.69 438.938 397.616 437.074 397.897 435.965C398.629 433.088 398.026 430.125 396.108 427.151L395.634 426.418L395.882 426.267C396.011 426.181 396.399 425.944 396.755 425.739L397.39 425.373L398.166 426.192C398.597 426.644 400.957 429.166 403.435 431.795Z" fill="#010D08"/>
<path d="M224.864 453.484C223.323 458.128 223.086 459.637 223.086 464.496C223.086 467.201 223.119 467.955 223.226 467.987C223.808 468.181 225.306 469.42 227.278 471.349C228.528 472.567 229.885 473.838 230.316 474.183C231.038 474.765 232.762 475.874 232.945 475.874C233.193 475.874 233.84 473.439 234.271 470.864C234.561 469.129 234.863 467.89 235.197 467.007C235.477 466.274 235.467 466.231 235.079 466.069C234.54 465.843 233.495 465.132 232.913 464.582C231.792 463.537 231.103 462.212 230.402 459.755C229.497 456.523 228.991 455.273 228.01 453.797C227.439 452.935 225.899 451.2 225.715 451.2C225.672 451.2 225.284 452.234 224.864 453.484Z" fill="#040404"/>
<path d="M373.955 470.024C373.384 471.198 372.684 472.782 372.414 473.558C370.464 479.064 369.57 480.723 366.757 484.02C366.197 484.677 365.615 485.453 365.464 485.744C365.12 486.444 365.109 487.274 365.454 487.942C365.734 488.481 367.566 490.345 369.074 491.616L370.055 492.446L371.983 491.853C376.315 490.55 378.114 489.504 379.181 487.716C379.86 486.574 380.032 485.863 380.086 483.934C380.183 480.971 379.924 479.29 378.34 472.965C377.78 470.746 377.295 468.741 377.252 468.515C377.22 468.3 377.155 468.095 377.112 468.073C377.08 468.052 376.584 468.009 376.024 467.966L374.989 467.89L373.955 470.024Z" fill="#040404"/>
</svg>
