<?xml version="1.0" standalone="no"?>
<!DOCTYPE svg PUBLIC "-//W3C//DTD SVG 20010904//EN"
 "http://www.w3.org/TR/2001/REC-SVG-20010904/DTD/svg10.dtd">
<svg version="1.0" xmlns="http://www.w3.org/2000/svg"
 width="615.000000pt" height="615.000000pt" viewBox="0 0 615.000000 615.000000"
 preserveAspectRatio="xMidYMid meet">
<metadata>
Created by potrace 1.14, written by Peter Selinger 2001-2017
</metadata>
<g transform="translate(0.000000,615.000000) scale(0.100000,-0.100000)"
fill="#000000" stroke="none">
<path d="M2889 6115 c-2 -2 -33 -6 -69 -10 -36 -3 -81 -8 -100 -10 -19 -2 -64
-7 -100 -11 -36 -3 -74 -8 -85 -11 -11 -2 -38 -6 -60 -8 -22 -2 -49 -6 -60 -8
-11 -3 -40 -8 -65 -12 -108 -16 -378 -98 -525 -158 -78 -32 -301 -149 -393
-207 -248 -156 -492 -364 -705 -604 -34 -38 -67 -74 -72 -80 -6 -6 -51 -63
-100 -126 -50 -63 -93 -116 -97 -118 -5 -2 -8 -8 -8 -13 0 -5 -16 -29 -35 -54
-19 -25 -50 -78 -69 -118 -19 -40 -66 -137 -105 -216 l-70 -145 3 -80 c2 -45
6 -92 10 -106 13 -54 17 -88 18 -150 0 -104 -19 -186 -92 -390 -95 -265 -109
-335 -84 -420 14 -47 55 -93 77 -84 6 2 23 20 36 40 24 35 25 35 33 13 11 -29
3 -80 -24 -161 -7 -21 -16 -38 -20 -38 -5 0 -8 -6 -8 -13 0 -7 -13 -38 -29
-68 -16 -30 -42 -94 -57 -144 -23 -78 -27 -109 -28 -230 -1 -185 13 -261 75
-397 61 -133 145 -238 328 -412 139 -132 242 -241 260 -275 6 -11 17 -25 24
-33 21 -22 73 -129 97 -198 12 -36 25 -72 28 -80 3 -8 6 -21 8 -28 7 -37 60
-172 83 -213 55 -100 137 -167 270 -224 194 -81 249 -114 351 -211 36 -35 80
-73 96 -86 16 -12 31 -25 34 -28 9 -10 55 -29 90 -38 66 -17 106 -3 245 81 46
27 115 58 165 73 196 58 256 106 267 216 8 86 23 99 136 128 79 21 106 77 73
153 -16 38 -49 69 -94 87 -31 12 -168 10 -232 -5 -28 -6 -126 -7 -150 -2 -53
12 -120 51 -120 69 0 9 13 7 93 -9 39 -8 362 -8 397 0 14 3 35 6 47 6 12 1 29
8 37 17 14 14 14 19 0 52 -8 20 -18 39 -22 42 -17 12 -52 69 -67 111 -22 61
-21 59 -49 199 -33 164 -52 222 -90 279 -50 74 -59 104 -53 172 4 47 14 75 43
122 21 34 41 64 45 67 4 3 23 34 42 70 72 130 55 212 -70 350 -52 58 -69 82
-122 174 -58 101 -91 134 -179 178 l-63 31 53 49 c51 47 52 49 23 44 -16 -2
-49 -11 -72 -20 -68 -24 -116 -28 -155 -12 -46 20 -42 45 18 114 24 28 44 53
44 56 0 3 -23 -8 -50 -25 -28 -17 -81 -42 -117 -54 -76 -27 -108 -20 -116 24
-6 31 5 55 47 100 l31 34 -45 -26 c-162 -93 -178 -94 -138 -10 21 43 1 42 -66
-4 l-69 -46 -56 31 c-31 17 -69 33 -83 36 -15 2 -33 8 -40 12 -7 4 6 -12 30
-35 67 -67 48 -72 -63 -17 -27 13 -52 23 -54 21 -5 -6 26 -35 37 -35 5 0 15
-7 22 -15 10 -13 9 -15 -9 -15 -12 0 -35 7 -50 15 -29 14 -111 36 -111 29 0
-2 17 -12 37 -23 21 -11 34 -21 28 -21 -310 -29 -477 -143 -745 -505 -36 -49
-88 -125 -115 -167 -26 -43 -52 -75 -58 -71 -5 3 -17 24 -27 46 -22 48 -23
138 -3 216 15 58 96 233 121 264 8 9 12 17 7 17 -4 0 -3 6 3 13 20 24 53 127
61 189 8 69 -7 128 -49 203 -66 115 -75 139 -74 200 0 33 9 85 19 115 11 30
20 57 20 60 2 12 48 146 54 155 3 6 6 12 6 15 1 6 67 131 93 175 29 51 133
215 212 335 42 63 96 147 120 185 61 96 190 286 204 301 6 6 25 28 41 50 98
125 268 287 426 407 l36 27 99 -36 c123 -45 178 -47 257 -10 31 15 57 31 57
35 0 4 19 18 42 31 38 21 56 24 158 24 123 1 126 2 236 70 50 31 44 31 204 23
77 -4 125 10 192 59 71 51 86 54 149 37 96 -27 162 -23 237 13 72 35 73 35
118 11 84 -44 194 -59 275 -36 84 23 104 19 154 -27 75 -67 127 -89 209 -88
39 1 87 4 107 9 31 6 40 3 61 -18 65 -65 151 -97 247 -91 29 2 62 -1 74 -5 12
-5 56 -42 98 -83 42 -41 83 -75 90 -76 96 -12 171 -4 249 26 52 19 96 3 170
-65 179 -163 311 -331 482 -613 54 -91 105 -174 111 -185 7 -10 23 -37 36 -60
13 -22 42 -83 63 -135 21 -52 63 -136 93 -187 30 -50 55 -96 55 -101 0 -6 4
-12 9 -14 12 -4 67 -116 90 -185 18 -51 33 -108 47 -178 2 -11 6 -31 9 -45 2
-14 7 -41 10 -60 3 -19 10 -50 15 -68 7 -27 5 -36 -13 -52 -11 -11 -26 -20
-32 -20 -21 0 -48 -45 -77 -128 -43 -123 -43 -237 1 -337 10 -22 35 -83 56
-135 21 -52 42 -99 47 -105 12 -13 10 -25 -5 -25 -7 0 -24 13 -37 28 -14 16
-58 64 -97 109 -40 44 -73 87 -73 96 0 34 -51 75 -147 117 -54 24 -132 59
-173 78 -119 56 -165 64 -360 66 -185 1 -212 7 -227 51 -13 34 -10 49 14 83
41 55 3 36 -57 -29 -64 -69 -96 -80 -129 -46 -11 12 -20 25 -20 30 -1 4 -1 24
-1 44 0 39 -8 40 -15 2 -12 -63 -18 -79 -34 -98 -20 -23 -54 -26 -116 -10 -22
5 -47 11 -55 13 -8 2 -28 7 -45 11 l-30 8 37 -29 c43 -33 47 -60 17 -93 -18
-19 -29 -22 -68 -18 -26 3 -64 12 -84 21 -20 8 -37 12 -37 8 0 -3 -5 -1 -12 6
-23 23 -40 13 -17 -10 32 -34 53 -68 46 -75 -4 -3 -51 6 -105 21 -105 28 -193
35 -158 13 10 -7 45 -32 78 -56 68 -50 64 -62 -16 -54 -88 8 -261 13 -284 6
-32 -8 -20 -15 35 -20 26 -2 67 -13 91 -25 71 -36 69 -52 -6 -53 -50 -1 -122
-21 -122 -35 0 -4 12 -6 28 -5 32 3 72 -10 72 -23 0 -5 -16 -26 -35 -47 -43
-47 -62 -87 -78 -163 -9 -43 -23 -72 -52 -107 -57 -68 -72 -85 -111 -127 -19
-20 -34 -41 -34 -46 0 -6 -6 -12 -14 -15 -34 -13 -37 -173 -4 -226 7 -11 21
-22 33 -25 11 -3 42 -35 69 -71 26 -36 51 -65 55 -65 8 0 44 -59 47 -77 1 -6
-27 -55 -62 -109 -66 -102 -67 -104 -80 -169 -8 -44 -11 -54 -13 -57 -2 -2 -5
-14 -7 -28 -3 -14 -9 -41 -14 -60 -5 -19 -14 -71 -20 -115 -12 -79 -35 -138
-64 -168 -25 -24 -65 -105 -62 -124 2 -15 13 -18 57 -19 29 0 71 3 94 8 22 5
47 11 55 13 46 10 109 27 228 60 74 20 136 34 139 32 2 -3 -3 -16 -12 -30 -17
-27 -56 -42 -200 -77 -147 -36 -157 -38 -210 -45 -55 -8 -123 -42 -142 -72
-25 -38 -32 -97 -16 -132 21 -43 63 -59 144 -56 46 2 69 -1 70 -9 13 -151 45
-191 181 -229 51 -15 123 -31 159 -37 73 -11 83 -16 178 -78 74 -49 114 -59
177 -43 60 15 226 98 244 122 3 3 24 18 46 32 40 25 153 129 349 322 50 50
118 110 151 134 46 33 68 59 92 106 40 77 106 145 198 205 67 44 126 93 197
165 47 47 137 161 137 173 0 6 4 12 8 14 11 4 74 139 92 195 7 24 32 65 55 92
130 152 227 339 241 466 3 28 8 53 10 56 8 14 17 79 16 127 -1 63 -55 241
-119 392 -3 8 -7 17 -8 20 -1 3 -7 18 -13 33 -7 16 -12 34 -12 42 0 8 -4 17
-10 20 -5 3 -10 21 -10 39 0 24 7 38 23 49 23 15 24 14 45 -29 12 -24 26 -44
31 -44 5 0 28 18 50 40 58 58 61 87 26 250 -2 8 -18 76 -35 150 -18 74 -33
142 -35 150 -2 8 -10 40 -18 71 -20 74 -16 192 12 334 14 71 5 219 -17 296
-53 180 -149 386 -258 552 -82 124 -234 334 -278 382 -11 12 -43 50 -71 84
-76 93 -319 327 -420 406 -49 38 -91 73 -93 77 -2 4 -9 8 -15 8 -7 0 -24 11
-39 25 -15 14 -29 25 -32 25 -3 0 -36 20 -73 44 -84 54 -246 141 -333 179
-154 67 -428 161 -505 172 -11 1 -40 8 -65 15 -25 7 -54 14 -65 16 -11 2 -31
6 -45 8 -14 3 -43 8 -65 12 -22 3 -49 7 -60 9 -51 9 -105 16 -155 21 -30 3
-73 8 -95 11 -49 6 -471 14 -476 8z m391 -200 c172 -9 247 -17 385 -40 237
-40 557 -131 754 -215 54 -23 66 -33 66 -52 0 -34 -26 -33 -123 5 -102 41
-247 93 -247 89 0 -2 -13 2 -30 8 -16 7 -55 19 -85 26 -30 8 -62 16 -70 19
-21 6 -248 53 -285 59 -29 4 -71 10 -145 20 -105 14 -206 19 -395 20 -241 1
-424 -11 -585 -40 -14 -2 -41 -7 -60 -10 -19 -3 -37 -7 -40 -9 -3 -2 -25 -6
-50 -10 -57 -9 -249 -59 -325 -85 -33 -11 -61 -21 -62 -21 -8 1 -132 -45 -178
-65 -16 -7 -53 -22 -82 -33 l-52 -20 -16 21 c-18 27 -10 37 50 60 22 9 67 27
100 41 95 40 404 136 488 153 12 2 56 10 97 19 201 40 329 54 540 62 91 3 166
7 168 8 2 1 17 1 35 -1 18 -1 84 -6 147 -9z m-2872 -1512 c25 -60 50 -154 45
-170 -9 -25 -32 -13 -38 20 -3 17 -7 39 -9 47 -3 14 -8 29 -37 102 -11 26 -6
48 10 48 5 0 18 -21 29 -47z m-57 -195 c29 -93 32 -128 10 -128 -6 0 -20 33
-31 73 -12 39 -28 92 -36 116 -8 24 -12 51 -9 60 11 27 32 -13 66 -121z m5565
-2 c11 -29 -112 -226 -142 -226 -23 0 -17 18 30 83 24 34 54 83 67 110 24 48
36 57 45 33z m-5616 -140 c26 -94 29 -120 19 -127 -7 -4 -16 -6 -19 -4 -5 3
-25 76 -35 125 0 3 -9 31 -19 62 -10 31 -15 65 -12 74 12 33 32 -6 66 -130z
m5670 27 c0 -16 -102 -174 -125 -193 -22 -19 -31 15 -11 43 8 12 29 41 46 65
16 23 30 46 30 50 0 4 10 20 22 34 22 28 38 28 38 1z m40 -113 c0 -28 -93
-180 -111 -180 -22 0 -18 26 9 63 16 23 39 61 51 85 19 37 51 58 51 32z
m-5782 -759 c7 -9 20 -31 28 -50 15 -32 15 -36 -1 -48 -25 -18 -53 0 -50 31 2
14 -6 37 -17 51 -10 14 -17 29 -13 34 7 12 36 2 53 -18z m5765 -135 c3 -8 -12
-37 -34 -65 -26 -33 -41 -61 -41 -81 -1 -32 -20 -36 -26 -6 -7 34 9 84 38 125
31 42 54 52 63 27z m-4607 -462 c-50 -38 -69 -41 -39 -7 21 23 53 42 72 43 8
0 -7 -16 -33 -36z m564 -27 c0 -5 7 -15 15 -23 10 -10 12 -21 6 -32 -4 -9 -11
-34 -15 -54 -8 -47 -22 -49 -32 -5 -4 17 -9 39 -11 47 -2 8 -6 42 -8 75 l-4
60 25 -30 c13 -16 24 -34 24 -38z m-470 9 c0 -45 -19 -63 -81 -79 -35 -9 -65
-14 -67 -12 -2 1 11 19 29 40 45 50 119 82 119 51z m225 -58 c21 -54 25 -114
10 -152 l-13 -30 -6 32 c-3 18 -9 45 -12 61 -7 39 -30 32 -89 -30 -43 -45 -69
-60 -49 -27 5 7 9 15 9 18 4 30 41 112 58 127 23 21 57 42 68 43 4 0 15 -19
24 -42z m2974 20 c21 -13 28 -28 13 -28 -5 0 -17 7 -28 15 -10 8 -27 15 -37
15 -10 0 -16 4 -12 9 7 12 36 7 64 -11z m-36 -47 c24 -11 54 -33 66 -50 22
-30 15 -45 -8 -18 -7 9 -31 13 -67 13 -60 -1 -70 5 -78 47 -4 23 -1 27 19 27
13 0 43 -9 68 -19z m-537 -78 c-3 -32 -9 -78 -14 -103 l-7 -45 -22 34 c-12 20
-19 45 -17 60 5 33 46 111 57 111 5 0 7 -26 3 -57z m301 5 c31 -15 78 -88 88
-137 l7 -35 -53 44 c-30 25 -60 51 -67 58 -8 6 -17 10 -22 7 -7 -4 -11 -20
-27 -105 -6 -36 -10 -35 -23 6 -14 42 -8 110 15 154 16 31 32 33 82 8z m961
-38 c53 -14 127 -45 148 -62 117 -98 148 -186 99 -284 -13 -27 -13 -36 -1 -70
15 -45 13 -71 -13 -129 -21 -47 -169 -201 -216 -225 -17 -8 -32 -18 -35 -21
-10 -13 -105 -36 -130 -32 -51 7 -92 26 -121 54 -36 35 -34 46 10 65 l33 14
-4 -36 -4 -36 55 7 c62 8 188 50 212 71 8 8 20 14 25 14 5 0 24 17 43 37 135
147 88 375 -93 459 -36 17 -42 22 -21 18 48 -9 136 -54 189 -95 26 -22 52 -36
57 -33 16 10 9 55 -13 87 -105 149 -277 190 -487 117 -112 -40 -130 -96 -52
-169 27 -25 59 -66 71 -91 24 -48 61 -82 94 -88 12 -1 41 3 66 10 53 15 65 13
93 -12 18 -18 19 -24 9 -58 -11 -37 -53 -83 -83 -91 -8 -2 -36 -6 -62 -8 l-49
-5 6 37 c4 21 8 41 11 44 7 13 -109 120 -147 136 -36 14 -38 14 -39 -2 -1 -10
-2 -25 -3 -33 -1 -8 1 -19 5 -25 3 -5 11 -29 19 -52 11 -37 11 -45 -9 -86 -27
-55 -29 -95 -11 -177 13 -60 19 -70 82 -132 113 -111 123 -155 73 -313 -17
-54 -51 -125 -60 -125 -2 0 -2 24 1 53 12 131 -1 198 -26 137 -7 -16 -16 -30
-21 -30 -5 0 -9 -7 -9 -15 0 -8 -4 -15 -9 -15 -5 0 -6 39 -3 87 l5 87 -26 -17
c-15 -9 -28 -17 -30 -17 -2 0 -4 18 -5 39 -2 21 -5 54 -7 72 -5 34 -11 138
-20 324 -2 55 -6 109 -9 120 -11 59 -21 169 -20 236 2 84 22 136 74 189 74 75
228 106 358 70z m-4398 -30 c59 -16 128 -68 148 -111 19 -41 20 -74 7 -269 -3
-52 -8 -142 -10 -200 -3 -58 -7 -141 -10 -185 -6 -77 -9 -215 -5 -225 1 -3 3
-22 4 -43 l2 -39 -22 28 -22 27 -8 -39 c-9 -44 -9 -56 0 -116 l7 -42 -37 48
c-20 26 -38 46 -40 43 -7 -7 -7 -51 1 -137 l7 -85 -22 28 c-23 29 -65 127 -54
127 4 0 2 6 -3 13 -5 6 -10 42 -12 78 -3 77 16 125 78 192 45 49 64 85 81 147
18 68 19 130 3 175 -23 65 -25 94 -12 148 12 48 14 60 10 87 -2 21 -24 8 -79
-48 -88 -89 -94 -100 -90 -157 l3 -50 -60 1 c-33 1 -67 2 -76 3 -10 1 -24 22
-37 56 l-20 56 25 17 c27 17 38 20 91 27 82 10 102 26 148 117 18 36 45 79 60
95 50 54 55 119 11 141 -62 32 -194 46 -273 28 -114 -25 -229 -135 -258 -246
-12 -46 -12 -48 5 -40 10 6 23 16 31 23 7 7 31 26 53 42 22 17 46 36 53 43 41
38 142 94 142 78 0 -2 -24 -18 -53 -35 -57 -32 -137 -113 -137 -137 0 -8 -4
-14 -9 -14 -8 0 -12 -11 -26 -62 -2 -5 -4 -11 -5 -15 -6 -20 0 -96 10 -135 35
-132 129 -197 296 -206 l92 -5 -5 36 c-4 30 -2 35 14 32 10 -2 23 -4 30 -4 16
-1 8 -40 -15 -71 -80 -107 -284 -73 -424 72 -63 65 -82 135 -58 217 7 24 6 39
-1 48 -6 7 -8 13 -3 13 5 0 4 4 -3 8 -21 14 -31 84 -18 135 30 120 184 259
321 290 61 15 113 13 174 -3z m1258 -39 c46 -24 76 -58 91 -104 11 -33 14 -35
37 -27 33 13 31 14 38 -14 3 -13 9 -31 12 -40 5 -13 -1 -16 -27 -16 -48 -1
-60 -14 -100 -108 -20 -46 -40 -82 -45 -80 -10 4 -7 21 11 63 42 96 52 158 36
208 -11 32 -41 60 -41 37 0 -17 -59 -50 -100 -55 -61 -8 -116 -40 -150 -87
-17 -23 -48 -57 -70 -76 -73 -62 -97 -155 -54 -203 23 -26 117 -74 162 -84 17
-3 32 -8 32 -11 0 -2 -15 -19 -32 -38 -18 -18 -70 -73 -114 -122 -45 -49 -109
-118 -142 -154 -95 -101 -128 -189 -95 -252 14 -29 29 -37 30 -15 2 46 29 144
46 165 17 22 92 70 118 77 21 5 28 -1 57 -55 18 -33 34 -60 35 -60 2 0 3 33 4
73 3 125 50 216 124 238 51 16 72 42 89 113 7 31 16 56 20 56 3 0 12 -17 19
-37 8 -21 23 -50 35 -64 12 -15 32 -41 46 -59 14 -18 30 -37 35 -44 28 -30 49
-95 50 -151 0 -44 6 -70 22 -96 15 -24 23 -54 24 -90 3 -82 14 -109 70 -165
28 -29 49 -56 45 -62 -10 -17 -138 -36 -236 -35 -111 1 -229 26 -332 72 -27
11 -48 18 -48 16 0 -13 65 -103 91 -127 76 -70 139 -89 274 -82 213 12 221 11
249 -15 30 -28 34 -66 9 -93 -22 -24 -40 -23 -99 7 -76 39 -119 48 -249 51
-122 4 -175 16 -175 40 0 8 -4 14 -10 14 -5 0 -10 8 -10 18 0 9 -7 26 -15 36
-14 18 -16 16 -41 -37 -28 -62 -36 -112 -23 -139 12 -22 93 -48 171 -54 73 -5
121 -19 138 -40 11 -12 18 -9 47 22 19 20 35 35 36 33 15 -22 27 -68 27 -103
0 -96 -63 -149 -200 -170 -19 -3 -50 -10 -69 -16 -19 -5 -36 -8 -38 -6 -2 2
26 30 62 62 36 32 65 66 65 76 0 28 -32 35 -175 41 -142 6 -184 18 -226 64
-24 26 -53 85 -54 108 -1 24 -37 112 -56 135 -15 18 -31 24 -60 25 -38 0 -39
1 -56 50 -23 69 -25 169 -5 211 18 39 16 44 -27 47 -28 2 -36 9 -32 30 3 18
-30 17 -67 -2 -50 -26 -47 -4 13 94 13 22 24 55 25 74 0 30 -2 33 -25 27 -27
-7 -32 3 -13 22 10 10 10 17 0 32 -10 17 -8 26 12 58 13 21 40 51 60 68 20 16
46 37 58 47 12 9 26 17 31 17 20 0 47 34 47 59 0 14 -14 51 -31 81 -48 86 -44
105 52 250 45 69 86 127 91 128 4 2 8 9 8 16 0 15 38 49 78 70 27 14 61 14
122 1 74 -16 72 -16 65 13 -4 15 -7 31 -8 36 -1 5 14 11 33 13 19 3 37 7 39 9
13 13 126 2 159 -15z m1792 -171 c0 -6 -7 -24 -15 -40 l-15 -29 33 11 c17 6
37 15 42 19 10 8 53 18 104 24 34 5 85 -18 118 -53 91 -94 213 -246 213 -263
0 -8 -15 -46 -32 -84 -30 -63 -34 -82 -29 -122 0 -7 7 -13 14 -13 6 0 39 -13
72 -29 97 -46 180 -131 129 -131 -15 0 -15 -2 0 -25 22 -33 20 -43 -8 -38 -17
4 -25 0 -28 -15 -6 -20 11 -53 66 -131 30 -43 30 -59 -1 -43 -18 10 -79 9 -89
-1 -3 -3 2 -17 11 -31 20 -30 10 -33 -24 -10 -21 15 -24 15 -42 -2 -17 -18
-17 -21 -3 -49 25 -49 21 -142 -11 -218 -12 -30 -21 -37 -43 -37 -54 -1 -96
-57 -126 -170 -10 -36 -27 -79 -38 -97 -45 -74 -158 -125 -306 -138 -85 -7
-118 -20 -125 -47 -5 -17 30 -68 46 -68 4 0 28 -14 54 -31 l48 -30 -90 6
c-175 13 -191 17 -223 49 -28 27 -40 99 -25 154 l8 33 49 -31 c26 -17 49 -30
51 -28 1 2 10 18 19 36 17 32 71 66 89 55 4 -2 14 1 22 7 8 7 15 10 15 8 0
-11 154 32 170 47 14 13 17 26 13 53 -3 21 -10 41 -14 47 -5 5 -9 16 -9 25 0
8 -9 26 -19 39 l-18 24 -19 -21 c-10 -12 -23 -36 -28 -54 -9 -28 -19 -36 -61
-49 -27 -10 -66 -19 -85 -22 -148 -24 -204 -42 -280 -89 -92 -58 -149 -55
-150 8 0 32 42 68 96 82 26 7 106 24 177 37 77 14 150 34 181 49 56 28 116 77
116 95 0 6 4 11 8 11 9 0 32 59 32 83 0 14 -5 14 -32 5 -18 -6 -37 -14 -43
-18 -15 -10 -255 -87 -300 -96 -5 -1 -28 -6 -50 -12 -22 -6 -53 -14 -70 -17
-120 -22 -125 -19 -72 30 58 53 82 106 93 205 3 30 16 73 28 96 18 33 21 52
16 86 -6 44 12 115 34 130 6 4 7 8 3 8 -4 0 -3 6 3 13 65 75 130 189 130 228
0 26 24 24 38 -3 6 -13 20 -57 31 -98 11 -41 29 -95 39 -119 11 -24 17 -51 14
-60 -13 -35 24 9 53 63 26 49 33 56 56 52 63 -9 172 -81 222 -145 26 -33 54
-107 70 -186 12 -60 37 21 25 84 -22 118 -48 160 -121 195 -51 24 -124 79
-193 146 -60 59 -71 80 -39 80 7 0 15 3 17 8 2 4 38 28 82 52 43 25 83 55 89
67 20 44 -1 93 -67 157 -35 34 -73 76 -86 95 -28 41 -98 74 -137 66 -73 -16
-92 -16 -116 0 -30 19 -55 11 -52 -18 0 -12 -1 -26 -4 -32 -15 -29 -7 -71 26
-142 19 -43 38 -81 40 -85 2 -5 -2 -8 -10 -8 -9 0 -28 28 -45 64 -35 74 -67
100 -116 94 l-33 -4 12 41 c6 22 16 39 21 38 5 0 17 -3 28 -5 13 -2 22 8 35
37 31 78 78 121 161 148 30 10 180 7 180 -3z m-1910 -140 c0 -5 -6 -10 -14
-10 -18 0 -66 -57 -66 -78 0 -10 11 -34 25 -53 25 -38 24 -49 -7 -49 -26 0
-109 40 -115 56 -7 20 58 112 92 129 34 17 85 20 85 5z m1914 -217 c25 -27 46
-52 46 -58 0 -5 -19 -22 -43 -37 -49 -31 -97 -45 -97 -29 0 6 5 11 10 11 6 0
19 19 30 42 17 38 17 45 4 76 -17 41 -17 42 -5 42 6 0 30 -21 55 -47z"/>
<path d="M2246 1583 c-4 -9 -9 -43 -13 -76 l-6 -60 48 -44 c53 -47 59 -45 71
20 5 31 2 41 -13 52 -11 8 -25 33 -32 56 -11 38 -31 69 -44 69 -3 0 -8 -8 -11
-17z"/>
<path d="M3710 1355 c-22 -47 -45 -85 -50 -85 -18 0 -10 -26 15 -50 23 -21 28
-22 65 -11 22 6 45 21 51 33 18 34 -8 198 -31 198 -5 0 -28 -38 -50 -85z"/>
</g>
</svg>
